<svg xmlns="http://www.w3.org/2000/svg" version="1.1" xmlns:xlink="http://www.w3.org/1999/xlink" xmlns:svgjs="http://svgjs.com/svgjs" width="1148.000000pt" height="1148.000000pt"><svg version="1.0" xmlns="http://www.w3.org/2000/svg" width="1148.000000pt" height="1148.000000pt" viewBox="0 0 1148.000000 1148.000000" preserveAspectRatio="xMidYMid meet">
<metadata>
Created by potrace 1.14, written by Peter Selinger 2001-2017
</metadata>
<g transform="translate(0.000000,1148.000000) scale(0.100000,-0.100000)" fill="#000000" stroke="none">
<path d="M5091 11181 c-19 -13 22 -25 52 -15 21 7 21 7 2 15 -27 10 -37 10
-54 0z"></path>
<path d="M5630 11125 c0 -5 25 -36 47 -60 7 -7 9 -15 6 -19 -12 -11 -68 -6
-97 9 -32 17 -73 19 -133 5 -31 -7 -52 -6 -83 5 -24 8 -49 15 -56 15 -19 0
-18 -28 1 -47 12 -12 13 -18 4 -29 -17 -21 -29 -17 -29 11 0 22 -3 24 -19 15
-25 -13 -98 -13 -106 0 -8 13 -35 1 -29 -13 6 -19 -9 -35 -46 -51 -19 -8 -34
-17 -32 -20 1 -3 2 -13 2 -21 0 -24 -28 -17 -32 8 -4 30 -48 38 -48 8 0 -12 4
-21 10 -21 5 0 7 -7 3 -16 -5 -13 -8 -11 -22 8 -30 42 -62 27 -176 -85 -57
-56 -108 -106 -114 -112 -32 -30 -91 -98 -91 -105 0 -5 -13 -17 -29 -26 -19
-11 -33 -31 -41 -58 -18 -63 -74 -142 -105 -150 -38 -10 -58 -32 -50 -56 15
-49 -42 -89 -123 -86 -42 1 -57 -3 -77 -21 -13 -13 -29 -23 -35 -23 -6 0 -8
-4 -5 -10 3 -5 1 -10 -4 -10 -6 0 -11 5 -11 10 0 6 -8 10 -17 10 -16 0 -43
-40 -43 -63 0 -5 -7 -15 -15 -23 -8 -9 -18 -27 -21 -42 -4 -15 -17 -49 -29
-77 -48 -106 -54 -125 -48 -159 4 -26 0 -42 -16 -64 -12 -17 -26 -53 -31 -81
-12 -63 -30 -99 -75 -148 -34 -37 -61 -106 -71 -181 -2 -20 -10 -40 -17 -44
-6 -4 -8 -8 -4 -8 4 0 -8 -30 -27 -66 -28 -52 -33 -70 -25 -85 5 -11 10 -38
10 -62 0 -23 2 -69 5 -101 6 -60 -7 -129 -47 -246 -17 -49 -19 -76 -17 -185 0
-16 -1 -46 -2 -65 -2 -19 0 -57 2 -85 3 -31 0 -60 -8 -76 -7 -14 -13 -61 -14
-105 -2 -109 -1 -116 10 -109 6 4 11 -6 11 -22 4 -96 20 -223 30 -251 26 -69
58 -215 62 -282 l4 -75 54 3 c68 4 83 -9 69 -59 -6 -18 -10 -55 -10 -80 0 -62
-17 -67 -81 -24 -55 38 -82 43 -105 21 -21 -22 -17 -48 14 -81 15 -17 28 -37
30 -45 1 -8 17 -28 33 -43 28 -26 31 -34 30 -85 0 -31 -3 -68 -6 -82 -3 -14
-11 -82 -17 -153 -10 -114 -9 -133 7 -187 10 -33 19 -72 21 -87 1 -16 3 -28 4
-28 2 0 10 -35 13 -60 1 -11 7 -26 14 -32 14 -16 53 -17 53 -2 0 5 4 8 9 5 11
-7 31 16 35 40 13 71 30 426 26 560 -1 46 3 63 14 67 17 7 26 -12 26 -55 0
-45 49 -248 71 -293 23 -49 80 -124 95 -124 16 -1 133 -61 139 -72 4 -5 21 -9
39 -9 32 0 188 -51 210 -69 6 -5 23 -8 38 -6 16 2 33 -4 43 -15 17 -19 81 -25
100 -10 14 11 159 15 270 7 198 -15 261 -20 285 -23 14 -2 79 -9 145 -15 74
-7 124 -17 133 -25 7 -8 18 -12 23 -9 5 4 9 3 9 -2 0 -8 56 -43 70 -43 4 0 22
-13 40 -30 32 -30 82 -41 95 -20 3 6 0 10 -8 10 -10 0 -13 11 -12 36 2 25 -3
41 -16 52 -38 33 -19 64 61 100 60 27 160 129 194 197 14 30 34 60 44 67 11 7
30 31 44 53 14 23 40 52 57 65 17 14 31 31 31 39 0 8 3 12 6 8 9 -9 36 21 29
33 -3 5 -3 10 2 10 4 0 16 14 26 31 12 22 22 29 34 24 10 -3 14 -3 10 1 -4 4
1 13 11 20 20 16 72 19 72 4 0 -5 6 -7 13 -5 16 6 64 -39 102 -96 17 -24 59
-102 95 -174 36 -71 67 -132 70 -135 3 -3 18 -23 35 -45 44 -59 111 -120 162
-146 25 -13 48 -29 50 -36 3 -7 11 -13 18 -13 20 0 47 -30 41 -46 -3 -7 0 -15
7 -18 9 -3 8 -5 -1 -5 -7 -1 -10 -5 -7 -11 3 -5 1 -10 -5 -10 -7 0 -9 -7 -6
-15 4 -10 -2 -19 -16 -24 -19 -7 -19 -8 -4 -14 10 -4 19 -1 23 9 4 10 13 14
27 10 11 -3 29 1 40 9 13 10 24 11 37 5 13 -7 31 -5 61 6 24 8 52 18 63 20 11
3 29 9 40 14 38 16 291 39 430 39 167 0 285 8 340 23 175 46 369 144 437 220
25 28 61 107 72 160 32 152 68 240 121 298 35 39 45 64 45 118 0 47 -1 50 -40
67 -22 10 -40 23 -40 29 0 11 -45 36 -65 36 -6 0 -26 13 -46 29 -43 35 -123
81 -142 81 -25 0 -77 31 -94 56 -8 13 -22 24 -30 24 -8 0 -11 5 -8 10 3 6 1
10 -5 10 -7 0 -10 6 -7 13 3 7 -1 21 -9 32 -8 10 -14 16 -14 12 0 -4 -9 2 -20
13 -11 11 -20 29 -20 41 0 11 -4 18 -9 14 -6 -3 -14 1 -18 9 -6 11 -33 17 -93
21 -91 6 -155 20 -181 42 -18 15 -63 18 -54 3 8 -14 -1 -13 -25 3 -17 10 -22
9 -29 -2 -6 -9 -11 -10 -15 -2 -4 6 -21 11 -37 11 -17 0 -28 -4 -25 -8 7 -11
-7 -12 -234 -16 -113 -2 -216 -8 -230 -13 -14 -5 -62 -8 -107 -7 -48 1 -83 -3
-83 -8 0 -6 -6 -8 -14 -5 -7 3 -25 -1 -40 -8 -19 -10 -25 -11 -20 -2 4 7 -7
-1 -24 -17 -21 -20 -32 -25 -33 -15 0 8 -4 4 -9 -8 -5 -13 -14 -23 -20 -23 -6
0 -15 -10 -20 -22 -6 -16 -9 -18 -9 -7 -1 19 -27 33 -36 19 -12 -19 -43 -31
-51 -18 -5 7 -3 8 6 3 8 -5 11 -3 8 6 -5 15 -78 21 -78 7 0 -4 -6 -7 -12 -5
-7 1 -14 -8 -16 -21 -2 -16 -8 -22 -18 -18 -8 3 -17 -1 -20 -9 -9 -22 -24 -18
-24 5 0 13 -7 20 -19 20 -11 0 -23 9 -26 20 -4 11 -11 18 -16 14 -6 -3 -17 0
-25 7 -8 6 -17 9 -21 6 -3 -4 -12 -2 -19 4 -18 15 -39 2 -25 -15 15 -18 2 -27
-21 -15 -18 10 -65 3 -54 -8 10 -10 -15 -43 -32 -43 -9 0 -23 -9 -29 -20 -11
-17 -9 -21 23 -36 33 -16 41 -16 78 -3 23 9 40 21 38 28 -1 7 3 11 10 8 7 -2
26 2 42 10 17 9 25 10 21 3 -4 -6 1 -18 11 -25 18 -14 18 -14 -2 -15 -13 0
-24 -8 -27 -19 -3 -14 2 -20 22 -24 14 -3 31 -1 36 5 7 8 6 8 -4 3 -10 -6 -12
-4 -7 4 6 9 12 8 26 -4 10 -9 20 -13 22 -8 3 4 3 2 2 -5 -2 -7 6 -17 19 -22
l22 -9 -23 0 c-13 -1 -32 4 -44 10 -11 6 -23 8 -26 4 -3 -3 4 -8 16 -12 12 -3
20 -8 18 -12 -6 -9 91 -8 100 1 15 16 24 7 12 -11 -7 -11 -16 -17 -21 -14 -4
3 -16 -2 -26 -11 -15 -14 -40 -15 -172 -11 -85 3 -172 7 -194 10 -22 2 -44 4
-48 4 -5 1 -6 5 -3 10 4 5 -2 7 -12 4 -37 -9 -83 63 -52 82 6 3 10 1 10 -4 0
-6 4 -11 8 -11 5 0 9 7 9 15 0 8 -4 15 -9 15 -4 0 -8 5 -8 11 0 5 13 3 29 -7
28 -16 31 -16 56 0 14 9 23 21 20 26 -4 6 -1 10 4 10 6 0 2 9 -9 20 -26 26
-38 25 -52 -5 -11 -25 -28 -34 -28 -15 0 6 -7 10 -15 10 -16 0 -10 29 9 43 7
5 6 10 -4 17 -13 9 -13 10 0 10 13 0 13 1 0 10 -21 14 -30 12 -30 -5 0 -8 -7
-15 -16 -15 -11 0 -14 5 -10 16 3 9 6 22 6 30 0 8 9 14 19 14 14 0 19 6 18 21
-2 23 -36 41 -65 35 -43 -10 -61 -19 -55 -29 6 -10 -28 -6 -72 8 -12 4 -15 3
-9 -2 13 -10 13 -53 0 -53 -5 0 -23 15 -40 33 -17 17 -32 31 -33 30 -9 -8 -23
-1 -23 11 0 27 -26 42 -64 38 -20 -2 -36 -8 -36 -13 0 -5 -4 -9 -10 -9 -5 0
-10 7 -10 15 0 10 -11 15 -32 16 -18 1 -73 2 -123 4 -49 1 -92 3 -95 5 -3 1
-8 2 -12 1 -5 0 -8 4 -8 10 0 8 -15 10 -44 7 -24 -3 -51 -1 -60 4 -10 6 -16 5
-16 -2 0 -13 -55 -13 -105 2 -22 6 -46 11 -53 9 -8 -1 -20 3 -27 9 -8 7 -23 9
-35 5 -12 -4 -27 -2 -35 5 -7 6 -44 13 -82 16 -37 3 -75 8 -83 11 -8 3 -36 7
-62 9 -36 3 -48 1 -48 -10 0 -16 -45 -30 -62 -20 -7 4 -8 3 -4 -4 4 -7 3 -12
-3 -12 -5 0 -13 4 -16 10 -6 10 -66 2 -75 -10 -3 -4 -15 -10 -27 -14 -13 -4
-23 -11 -23 -15 0 -4 -6 -8 -12 -8 -7 0 -26 -4 -43 -7 -16 -4 -36 -8 -43 -10
-8 -1 -17 -8 -21 -15 -5 -7 -12 -12 -17 -12 -20 2 -51 -13 -86 -42 -21 -17
-41 -28 -44 -24 -3 3 -16 -5 -28 -17 -11 -13 -46 -35 -76 -49 -30 -15 -82 -47
-115 -72 -68 -52 -103 -65 -116 -44 -21 32 -2 270 31 399 6 25 10 70 8 100 -2
43 0 54 11 52 12 -3 12 -1 0 14 -8 10 -9 15 -2 11 6 -4 14 -3 17 2 10 16 16
101 7 101 -4 0 -8 7 -8 15 0 8 9 15 19 15 10 0 18 5 18 10 0 6 -5 10 -11 10
-8 0 -8 4 -1 13 5 6 8 22 6 35 -2 12 1 22 7 22 5 0 7 5 4 10 -4 6 1 22 10 36
9 14 14 32 11 40 -3 8 -1 14 4 14 5 0 8 23 7 50 -1 28 -4 50 -7 50 -3 0 -5 60
-5 133 0 111 -2 131 -15 129 -11 -3 -10 1 3 16 14 15 15 21 5 25 -10 4 -10 6
0 6 6 1 12 10 12 22 0 11 -4 18 -9 15 -5 -4 -7 3 -4 14 3 11 10 20 15 20 6 0
8 24 6 55 -1 30 -1 55 3 55 8 0 4 133 -5 154 -6 12 -5 21 4 26 7 4 9 13 6 19
-4 6 -3 11 2 11 15 0 64 81 58 96 -3 8 0 14 6 14 6 0 5 6 -3 17 -8 9 -9 14 -3
10 10 -6 42 48 49 83 7 36 10 45 17 51 5 3 26 41 48 84 22 43 40 75 40 70 0
-12 124 115 139 142 6 13 17 22 23 20 7 -1 12 5 13 13 0 8 5 15 10 16 21 2 45
17 39 25 -3 5 3 6 12 2 14 -5 16 -3 11 11 -4 10 -3 15 3 11 6 -3 10 1 10 10 0
9 5 13 11 9 6 -3 15 0 20 7 4 8 14 14 21 14 7 1 12 7 10 14 -1 7 2 10 6 7 5
-3 22 6 38 19 16 14 35 25 42 25 7 0 15 6 18 13 2 7 14 14 27 14 12 1 23 7 25
13 2 5 10 10 18 10 7 0 21 11 30 25 9 14 20 22 26 19 5 -3 18 2 29 12 10 9 19
13 19 9 0 -5 6 -2 13 7 6 9 21 18 32 20 11 2 19 9 18 15 -1 6 6 9 16 6 11 -3
28 4 40 16 11 11 27 18 34 15 8 -3 17 2 20 10 4 9 15 16 26 16 11 0 22 4 25 8
6 11 147 22 301 26 61 1 117 6 125 11 20 12 60 17 150 18 89 0 134 -9 124 -25
-5 -7 -3 -8 5 -4 7 5 10 11 6 14 -3 3 7 11 22 17 37 15 239 20 248 6 3 -6 12
-11 18 -11 7 0 6 4 -3 10 -12 8 -10 10 11 10 14 0 29 3 33 7 9 9 36 13 36 5 0
-4 20 -8 45 -10 26 -2 45 2 45 8 0 5 5 10 11 10 5 0 7 -4 4 -10 -4 -6 10 -9
37 -9 30 2 35 3 16 6 -16 2 -28 8 -28 13 0 5 15 4 33 -2 45 -14 127 -26 127
-18 0 4 12 6 28 3 23 -3 24 -2 7 6 -23 11 -17 12 113 16 64 2 93 -6 60 -17 -7
-3 -2 -7 10 -10 15 -4 20 -3 15 5 -4 7 0 7 9 -1 10 -8 18 -9 22 -3 7 11 109 2
114 -10 2 -4 10 -5 18 -2 17 6 46 -15 38 -28 -5 -9 4 -10 93 -15 24 -1 50 -9
59 -19 9 -9 28 -15 43 -13 15 1 40 -3 56 -9 35 -13 120 -27 153 -25 13 0 25
-5 28 -12 3 -8 14 -12 27 -8 12 3 19 2 15 -3 -11 -12 15 -32 34 -27 11 3 18
-1 18 -11 0 -8 9 -17 21 -20 12 -3 18 -10 15 -15 -3 -5 6 -7 19 -4 15 2 25 0
25 -7 0 -6 11 -11 24 -11 13 0 27 -6 29 -12 4 -10 6 -10 6 0 1 19 40 14 64 -9
14 -12 31 -19 45 -16 17 3 22 1 18 -9 -9 -23 15 -63 46 -76 15 -7 28 -19 28
-25 0 -7 7 -13 15 -13 8 0 15 -4 15 -9 0 -18 40 -19 49 -2 8 13 4 22 -16 37
-14 10 -35 21 -46 24 -13 4 -24 18 -30 40 -10 41 -27 63 -27 35 0 -10 -3 -15
-7 -11 -5 4 -8 11 -8 14 0 4 -16 24 -35 44 -19 20 -44 54 -55 75 -10 21 -33
56 -50 78 -16 21 -30 42 -31 45 -3 19 -25 60 -33 60 -5 0 -11 7 -14 14 -4 10
-1 13 8 9 12 -4 13 0 4 26 -6 17 -15 28 -21 25 -6 -4 -6 2 1 14 13 24 5 52
-15 52 -8 0 -14 5 -14 10 0 6 -3 9 -7 9 -20 -3 -34 3 -55 26 -41 43 -49 55
-38 55 14 0 13 27 -2 36 -6 4 -8 3 -5 -4 5 -6 -2 -6 -18 1 -13 7 -21 13 -16
15 12 4 -69 85 -102 102 -21 10 -30 11 -39 2 -7 -7 -27 -12 -45 -12 -18 0 -33
-4 -33 -10 0 -15 -32 -12 -54 5 -10 8 -23 12 -29 8 -6 -4 -7 -1 -1 8 12 20 14
39 3 39 -5 0 -9 -7 -9 -15 0 -11 -7 -14 -25 -11 -14 3 -25 0 -25 -6 0 -6 -9
-8 -19 -5 -10 2 -25 1 -32 -4 -20 -12 -29 -1 -19 25 6 16 5 28 -3 36 -9 9 -9
11 0 6 6 -3 15 6 22 24 9 28 8 30 -15 30 -14 0 -22 -4 -19 -10 3 -5 2 -18 -4
-27 -9 -16 -11 -16 -19 7 -5 14 -7 29 -4 34 2 5 -1 6 -9 4 -8 -3 -14 -15 -13
-27 1 -20 -3 -22 -33 -16 -34 6 -70 -14 -55 -31 4 -4 -8 5 -25 21 -18 17 -33
38 -33 48 0 14 -4 16 -18 8 -13 -7 -22 -7 -30 1 -6 6 -19 15 -30 22 -11 6 -55
32 -97 59 -41 26 -82 47 -90 47 -8 0 -15 6 -15 13 0 6 -12 13 -28 13 -15 1
-22 -1 -15 -3 24 -9 2 -29 -28 -25 -22 3 -27 7 -19 17 7 9 6 16 -6 26 -10 8
-19 13 -21 12 -1 -2 -11 -3 -20 -2 -11 0 -13 3 -5 6 6 2 12 9 12 14 0 6 -5 7
-11 4 -5 -4 -29 -9 -52 -11 -31 -3 -38 -2 -27 6 11 7 -3 10 -50 9 -36 -1 -70
-6 -77 -11 -7 -5 -17 -6 -24 -2 -6 4 -41 9 -78 11 -36 3 -69 9 -73 16 -8 13
-32 19 -71 18 -29 -1 -76 19 -116 50 -13 10 -27 16 -31 14 -5 -3 -11 -1 -15 5
-6 10 -45 14 -45 5z m-457 -245 c-3 -11 -9 -20 -13 -20 -15 0 -32 30 -26 45 9
25 46 1 39 -25z m-169 -47 c-4 -16 -11 -36 -15 -45 -5 -9 -9 -26 -9 -37 0 -12
-3 -21 -8 -21 -16 0 -33 -59 -23 -79 31 -57 -10 -123 -79 -129 -43 -3 -69 -31
-45 -48 17 -13 21 -29 3 -18 -8 5 -9 2 -5 -11 6 -15 3 -16 -20 -10 -16 4 -52
9 -80 12 -29 3 -53 9 -53 15 0 7 -4 7 -12 0 -7 -5 -28 -13 -45 -17 -18 -3 -33
-11 -33 -16 0 -6 -6 -7 -12 -3 -7 4 -4 -2 6 -14 19 -22 19 -22 -5 -23 -17 -1
-19 -3 -6 -6 9 -2 17 -9 17 -14 0 -6 -9 -5 -21 2 -18 9 -21 17 -16 53 10 69
72 173 120 201 27 16 29 16 42 -2 13 -16 16 -16 25 -3 5 8 10 23 10 33 0 26
36 74 61 82 11 4 27 23 37 43 17 37 50 59 107 73 59 14 66 12 59 -18z m76 -48
c0 -8 -4 -15 -10 -15 -5 0 -10 7 -10 15 0 8 5 15 10 15 6 0 10 -7 10 -15z
m-34 -84 c6 -29 4 -33 -12 -29 -15 3 -19 12 -19 46 0 33 2 39 12 29 7 -7 16
-27 19 -46z m72 32 c5 4 15 -6 20 -23 9 -26 8 -31 -9 -41 -36 -19 -53 -8 -55
36 -2 50 4 61 20 39 7 -9 18 -14 24 -11z m1882 -513 c18 -12 2 -12 -25 0 -13
6 -15 9 -5 9 8 0 22 -4 30 -9z m-2700 -17 c0 -34 -26 -86 -56 -112 -54 -48
-111 -36 -61 13 16 16 21 30 18 49 -4 21 22 46 52 50 17 2 35 5 40 5 4 1 7 -1
7 -5z m-150 -45 c-1 -7 -9 -31 -20 -53 -10 -22 -16 -43 -14 -47 3 -5 1 -8 -4
-8 -6 0 -9 -16 -8 -36 1 -32 -1 -35 -22 -31 -25 5 -62 -36 -62 -70 0 -18 -20
-56 -20 -39 0 6 -6 2 -13 -8 -11 -16 -13 -14 -15 13 -1 16 2 32 8 36 5 3 10
13 10 22 0 21 49 65 62 57 7 -5 9 -2 5 8 -3 9 -1 20 4 25 6 6 6 19 1 34 -11
29 1 67 25 76 10 4 24 13 31 20 17 16 32 17 32 1z m-130 -384 c0 -8 -6 -14
-13 -14 -19 0 -27 10 -20 25 6 17 33 8 33 -11z m2060 -2214 c0 -29 -9 -34 -46
-29 -4 0 -11 -5 -16 -13 -16 -22 -4 5 17 39 25 41 45 42 45 3z m237 8 c-3 -8
-6 -5 -6 6 -1 11 2 17 5 13 3 -3 4 -12 1 -19z m337 7 c4 -10 -1 -15 -16 -15
-17 0 -18 2 -8 15 7 8 14 15 15 15 2 0 5 -7 9 -15z m-144 -5 c0 -5 -4 -10 -10
-10 -5 0 -10 5 -10 10 0 6 5 10 10 10 6 0 10 -4 10 -10z m-315 -37 c-2 -10 -4
-20 -4 -22 -1 -2 -8 3 -17 10 -14 12 -14 14 3 20 10 4 19 8 20 8 1 1 0 -7 -2
-16z m385 7 c0 -5 -5 -10 -11 -10 -5 0 -7 5 -4 10 3 6 8 10 11 10 2 0 4 -4 4
-10z m-1983 -14 c-4 -10 2 -16 16 -19 15 -3 11 -5 -12 -6 -27 -1 -31 2 -22 12
6 8 8 17 4 20 -3 4 -1 7 6 7 7 0 11 -6 8 -14z m-163 -11 c3 -8 1 -17 -4 -20
-6 -4 -10 1 -10 10 0 9 -5 13 -11 10 -7 -5 -5 -13 6 -25 15 -16 14 -18 -13
-23 -20 -4 -28 -12 -28 -26 0 -12 4 -21 8 -21 4 0 8 5 8 12 0 6 3 9 6 6 5 -6
-3 -23 -42 -90 -7 -11 -14 -15 -18 -10 -3 6 2 18 11 28 20 19 25 41 13 49 -5
3 -7 14 -5 25 2 12 -2 20 -10 20 -7 0 -21 3 -31 7 -10 4 -15 2 -11 -4 3 -5 1
-10 -6 -10 -7 0 -13 11 -13 23 -1 17 2 21 14 17 11 -5 14 -2 9 10 -5 12 1 17
26 19 78 7 96 6 101 -7z m1626 -35 c0 -5 -7 -7 -15 -4 -8 4 -15 8 -15 10 0 2
7 4 15 4 8 0 15 -4 15 -10z m2025 -15 c33 -4 83 -14 110 -23 52 -17 58 -19 87
-21 32 -2 105 -88 117 -137 17 -67 13 -373 -6 -454 -29 -123 -77 -189 -169
-234 -80 -39 -126 -44 -153 -17 -23 23 -51 30 -33 9 8 -10 4 -13 -14 -13 -24
0 -33 10 -15 17 5 2 3 12 -4 22 -11 15 -17 16 -29 7 -21 -17 -128 -11 -144 8
-11 14 -11 14 -5 -3 4 -13 3 -17 -5 -12 -7 4 -26 1 -43 -8 -32 -16 -174 -23
-220 -11 -15 3 -42 3 -60 -2 -43 -12 -74 3 -74 36 0 29 20 37 114 47 39 3 71
11 71 16 0 5 15 8 33 7 24 -3 31 0 29 11 -3 12 -1 13 9 3 7 -7 26 -13 41 -13
15 0 28 -4 28 -10 0 -16 40 -12 58 6 10 11 17 13 20 5 4 -12 23 -16 21 -3 -3
20 2 32 16 32 21 0 20 54 -1 71 -9 8 -27 12 -39 11 -31 -4 -28 26 5 43 24 12
95 18 208 16 30 -1 42 -5 42 -16 0 -19 7 -19 27 1 9 8 22 13 29 10 8 -3 14 -2
14 2 0 10 60 45 60 35 0 -4 5 0 11 10 8 13 7 22 -1 32 -7 8 -10 20 -8 27 3 7
-2 18 -11 25 -13 10 -14 15 -3 32 10 17 10 21 0 22 -10 0 -10 2 -1 6 10 3 10
10 2 24 -5 11 -7 24 -4 29 3 6 -1 10 -9 10 -8 0 -21 6 -28 13 -13 13 -64 37
-76 37 -4 0 0 -5 8 -10 9 -6 10 -10 3 -10 -13 0 -8 -47 8 -66 10 -12 2 -24
-15 -24 -6 0 -4 5 4 10 9 6 10 10 3 10 -6 0 -14 -4 -17 -9 -10 -15 -89 6 -108
29 -24 30 -23 66 3 84 15 10 19 20 14 35 -3 12 -11 21 -16 21 -5 0 -18 9 -30
21 -12 12 -35 22 -52 23 -17 1 -33 8 -35 14 -2 7 -9 12 -15 12 -7 0 -24 11
-38 24 -19 17 -43 26 -86 31 -33 3 -82 17 -108 31 -27 13 -56 24 -66 24 -10 0
-21 5 -25 12 -4 7 -3 8 4 4 7 -4 17 -4 24 0 7 4 21 9 32 10 12 1 35 5 51 7 17
3 77 9 135 12 58 4 107 9 109 11 5 4 136 -2 216 -11z m-3747 -32 c0 -10 -5
-28 -11 -41 l-10 -22 -24 22 c-25 23 -30 40 -10 32 7 -2 21 2 32 10 11 9 20
16 21 16 0 0 1 -8 2 -17z m-154 -15 c-5 -9 -2 -9 9 1 15 12 17 11 17 -3 0 -9
6 -16 13 -17 6 0 3 -4 -8 -9 l-20 -9 20 -1 c18 0 18 -2 3 -10 -27 -16 -68 5
-68 35 0 19 5 25 21 25 13 0 18 -4 13 -12z m1581 2 c11 -17 -5 -32 -21 -19 -7
6 -11 15 -8 20 7 12 21 11 29 -1z m1088 -122 c-1 -46 -2 -87 -2 -92 -1 -4 -8
-5 -17 -2 -8 3 -12 2 -9 -4 3 -6 0 -10 -9 -10 -8 0 -13 7 -11 18 1 9 7 16 12
15 6 -1 8 9 5 23 -2 13 1 31 8 39 7 9 10 18 6 22 -3 3 -6 1 -6 -7 0 -10 -3
-10 -15 0 -12 10 -15 10 -16 -1 0 -8 -5 -3 -12 10 -10 20 -8 26 16 47 47 40
53 33 50 -58z m-2671 34 c3 -10 0 -19 -6 -19 -7 0 -12 9 -12 19 0 10 3 18 7
18 4 0 9 -8 11 -18z m51 -9 c-7 -2 -19 -2 -25 0 -7 3 -2 5 12 5 14 0 19 -2 13
-5z m2453 -99 c-5 -28 -23 -54 -37 -54 -17 0 -9 33 14 55 29 29 28 29 23 -1z
m1079 -174 c3 -5 -7 -22 -22 -37 l-28 -28 -3 29 c-5 37 36 64 53 36z m-2870
-120 c3 -5 29 -9 57 -8 34 2 53 -2 56 -10 2 -6 15 -12 29 -12 19 0 24 -4 19
-16 -4 -12 -2 -15 9 -10 8 3 15 1 15 -5 0 -6 7 -9 15 -5 8 3 15 1 15 -4 0 -4
14 -11 30 -15 45 -10 40 -38 -5 -32 -19 3 -38 1 -41 -5 -4 -5 -10 -5 -17 0 -7
5 -31 10 -53 9 -30 0 -52 8 -76 26 -23 18 -42 25 -58 21 l-25 -5 25 11 c19 9
22 13 10 20 -8 5 -18 6 -22 4 -5 -3 -15 2 -24 10 -14 15 -14 16 1 16 9 0 13 5
10 10 -3 6 1 10 9 10 8 0 18 -4 21 -10z m-65 -32 c0 -4 -4 -8 -9 -8 -6 0 -12
4 -15 8 -3 5 1 9 9 9 8 0 15 -4 15 -9z m2942 -73 c35 -39 37 -43 31 -48 -3 -3
-17 -1 -31 4 -14 6 -36 8 -48 5 -14 -4 -24 -1 -28 9 -3 8 -11 15 -17 15 -9 0
-9 -3 0 -14 9 -11 4 -13 -28 -12 -22 0 -35 3 -30 7 6 3 1 9 -10 12 -12 3 -19
1 -15 -4 3 -5 1 -9 -3 -9 -13 0 -34 40 -28 50 3 6 47 9 98 7 78 -2 95 -5 109
-22z m65 -57 c-3 -8 -6 -5 -6 6 -1 11 2 17 5 13 3 -3 4 -12 1 -19z m-2123 -18
c22 -4 46 -6 53 -3 7 3 13 1 13 -3 -1 -17 -25 -49 -40 -52 -8 -2 -20 -11 -27
-21 -18 -26 -98 -62 -136 -60 -18 0 -41 -1 -52 -4 -47 -11 -148 -18 -255 -18
-161 0 -396 8 -455 15 -27 3 -75 9 -105 12 -30 3 -58 11 -62 17 -6 9 -8 9 -8
0 0 -9 -14 -8 -52 3 -29 9 -57 20 -63 25 -5 5 -21 9 -36 9 -15 0 -31 6 -37 13
-8 9 2 12 49 14 49 1 63 5 80 24 14 17 19 19 15 7 -3 -12 -1 -15 10 -11 7 3
14 8 14 12 0 3 18 6 40 6 22 0 40 -2 40 -5 0 -3 15 -5 33 -6 17 -1 43 -4 57
-8 14 -4 60 -9 103 -11 44 -3 84 -8 89 -11 6 -4 59 -7 118 -8 77 -2 113 -6
126 -17 11 -9 15 -9 10 -1 -5 9 3 12 31 12 26 0 34 -3 24 -9 -9 -6 14 -9 62
-8 43 1 77 5 77 10 0 4 15 7 33 8 46 1 102 24 101 41 -1 10 7 13 26 10 21 -3
28 1 33 18 5 18 10 21 29 16 13 -4 41 -11 62 -16z m1232 -8 c-3 -5 7 -15 22
-22 15 -7 40 -19 56 -28 19 -10 56 -15 108 -14 49 0 90 -5 106 -14 l27 -14
-25 -1 c-14 -1 -29 -1 -33 0 -5 1 -5 -4 -2 -10 4 -6 20 -8 39 -5 39 7 69 -9
46 -24 -12 -8 -13 -10 -1 -10 8 0 22 7 32 16 16 15 19 14 31 -5 7 -12 18 -21
25 -21 7 0 13 -8 13 -19 0 -15 10 -19 52 -24 28 -4 54 -11 58 -17 4 -6 22 -11
41 -10 80 1 143 -2 124 -7 -11 -3 -38 -11 -61 -18 -36 -12 -116 -13 -314 -4
-20 1 -184 18 -240 25 -25 3 -52 5 -60 5 -8 0 -37 6 -63 12 -59 14 -152 96
-144 127 3 11 0 17 -7 14 -7 -3 -13 7 -14 23 -2 26 -1 26 13 7 8 -10 15 -14
15 -7 0 7 6 10 14 7 10 -4 13 0 10 13 -5 17 0 19 38 18 24 0 54 2 68 6 14 4
26 8 28 8 2 1 1 -3 -2 -7z m894 -12 c0 -5 -7 -7 -15 -4 -8 4 -15 8 -15 10 0 2
7 4 15 4 8 0 15 -4 15 -10z m-195 -10 c3 -5 -1 -10 -10 -10 -9 0 -13 5 -10 10
3 6 8 10 10 10 2 0 7 -4 10 -10z m135 -20 c0 -5 -4 -10 -10 -10 -5 0 -10 5
-10 10 0 6 5 10 10 10 6 0 10 -4 10 -10z m-450 -40 c0 -5 -4 -10 -10 -10 -5 0
-10 5 -10 10 0 6 5 10 10 10 6 0 10 -4 10 -10z m57 -36 c-3 -3 -12 -4 -19 -1
-8 3 -5 6 6 6 11 1 17 -2 13 -5z m557 -67 c4 4 4 0 1 -9 -5 -11 -23 -19 -53
-23 -26 -3 -58 -8 -70 -11 -15 -3 -21 -1 -17 6 4 6 -6 10 -25 10 -17 0 -29 -4
-26 -9 3 -5 -1 -11 -9 -15 -8 -3 -17 -1 -20 4 -4 6 0 10 7 11 7 0 4 4 -7 9
-14 6 -1 9 45 10 80 2 122 8 134 20 6 6 14 6 21 0 7 -5 15 -7 19 -3z"></path>
<path d="M4331 7496 c-9 -11 -9 -16 0 -22 8 -4 9 -3 5 4 -5 8 0 12 13 12 14 0
19 -5 15 -15 -5 -11 -2 -13 10 -9 12 5 13 10 5 25 -12 22 -32 25 -48 5z"></path>
<path d="M8186 6877 c3 -10 9 -15 12 -12 3 3 0 11 -7 18 -10 9 -11 8 -5 -6z"></path>
<path d="M4310 7399 c0 -5 5 -7 10 -4 6 3 10 8 10 11 0 2 -4 4 -10 4 -5 0 -10
-5 -10 -11z"></path>
<path d="M7755 6800 c3 -5 8 -10 11 -10 2 0 4 5 4 10 0 6 -5 10 -11 10 -5 0
-7 -4 -4 -10z"></path>
<path d="M4760 11010 l-25 -20 28 0 c15 0 27 5 27 10 0 6 8 10 18 10 14 0 15
2 2 10 -20 13 -21 13 -50 -10z"></path>
<path d="M4675 10947 c-6 -7 -15 -18 -19 -25 -7 -11 -4 -12 12 -3 11 6 22 17
26 26 6 18 -5 19 -19 2z"></path>
<path d="M6820 10779 c0 -5 5 -7 10 -4 6 3 10 8 10 11 0 2 -4 4 -10 4 -5 0
-10 -5 -10 -11z"></path>
<path d="M4212 10328 c-13 -13 -17 -48 -6 -48 4 0 15 10 25 21 26 30 9 55 -19
27z"></path>
<path d="M4101 10273 c-16 -17 -11 -25 8 -14 7 5 12 13 10 19 -2 6 -10 4 -18
-5z"></path>
<path d="M6828 10243 c7 -3 16 -2 19 1 4 3 -2 6 -13 5 -11 0 -14 -3 -6 -6z"></path>
<path d="M7935 9860 c-7 -11 22 -26 32 -16 4 3 -1 6 -11 6 -9 0 -14 5 -11 10
3 6 4 10 1 10 -3 0 -8 -5 -11 -10z"></path>
<path d="M7949 9773 c-31 -7 -29 -49 4 -77 16 -14 33 -26 38 -26 10 0 30 -36
23 -42 -3 -3 6 -8 19 -12 15 -3 27 -16 31 -31 4 -16 11 -22 21 -19 18 7 20 -7
3 -24 -8 -8 -9 -15 -3 -20 6 -4 19 -25 30 -46 20 -38 85 -116 85 -101 0 4 9
-3 20 -16 10 -13 19 -19 20 -12 0 17 33 21 46 5 9 -12 11 -12 11 2 0 9 -4 16
-9 16 -5 0 -7 4 -4 8 3 5 -1 9 -9 9 -8 0 -12 -4 -9 -9 3 -4 -2 -8 -10 -8 -8 0
-18 5 -22 12 -4 7 -3 8 5 4 7 -4 18 5 29 23 20 36 22 37 52 11 13 -11 30 -20
39 -20 9 0 25 -7 36 -16 19 -14 19 -15 -3 -20 -30 -8 -18 -23 18 -22 18 1 30
6 30 15 0 7 -4 13 -10 13 -5 0 -10 5 -10 12 0 9 3 9 12 0 17 -17 31 -15 24 4
-5 13 -1 14 24 9 20 -4 30 -3 30 5 0 6 -4 8 -10 5 -7 -4 -7 3 0 19 9 25 6 30
-14 27 -5 -1 -4 4 2 12 7 8 8 18 4 22 -4 5 -1 5 6 1 7 -4 10 -12 7 -17 -4 -5
-1 -9 4 -9 15 0 14 23 -1 39 -11 11 -8 12 14 7 15 -3 29 -2 32 2 8 14 -57 12
-73 -1 -12 -9 -13 -9 -7 1 4 6 2 12 -4 12 -5 0 -18 16 -27 35 -10 22 -24 35
-36 35 -10 0 -32 14 -49 30 -24 24 -38 30 -72 30 -28 0 -52 7 -69 20 -14 11
-30 20 -36 20 -6 0 -8 6 -5 14 4 10 -8 15 -44 20 -30 4 -52 12 -56 21 -7 20
-24 19 -29 -2 -4 -17 -5 -17 -6 -1 -1 11 -12 20 -28 24 -16 3 -32 7 -38 8 -5
1 -17 1 -26 -1z m301 -263 c0 -5 6 -7 14 -4 14 5 26 -22 19 -43 -5 -15 -33
-18 -33 -3 0 5 -6 7 -14 4 -8 -3 -17 -1 -21 5 -3 7 0 8 9 5 19 -7 22 16 4 34
-9 9 -8 12 5 12 9 0 17 -4 17 -10z m90 -5 c0 -9 6 -12 15 -9 8 4 13 9 10 14
-2 4 9 7 26 8 16 0 27 -4 24 -9 -4 -5 -1 -9 5 -9 21 0 0 -19 -29 -25 -16 -3
-35 -13 -42 -21 -15 -18 -29 -18 -29 1 0 8 -4 15 -9 15 -5 0 -11 9 -14 21 -5
17 -2 20 14 16 10 -3 17 -1 13 4 -3 5 0 9 5 9 6 0 11 -7 11 -15z"></path>
<path d="M8255 9330 c-3 -5 -1 -10 4 -10 6 0 11 5 11 10 0 6 -2 10 -4 10 -3 0
-8 -4 -11 -10z"></path>
<path d="M8290 9309 c0 -6 -6 -9 -14 -6 -11 4 -13 0 -11 -15 6 -27 24 -40 48
-34 17 4 18 3 3 -13 -14 -15 -14 -20 -1 -38 8 -11 11 -23 8 -27 -9 -9 30 -43
45 -38 22 7 14 42 -10 42 -18 0 -20 2 -8 9 8 6 19 7 25 5 5 -3 2 1 -9 10 -10
8 -15 20 -10 27 4 8 3 10 -4 5 -7 -4 -13 -1 -13 8 -1 9 -2 22 -3 29 -1 6 -11
11 -24 9 -26 -4 -30 15 -4 20 16 3 16 4 0 10 -11 4 -18 3 -18 -3z"></path>
<path d="M8400 9309 c0 -5 5 -7 10 -4 6 3 10 8 10 11 0 2 -4 4 -10 4 -5 0 -10
-5 -10 -11z"></path>
<path d="M8476 9303 c-6 -14 -5 -15 5 -6 7 7 10 15 7 18 -3 3 -9 -2 -12 -12z"></path>
<path d="M8430 9280 c0 -5 9 -10 21 -10 11 0 17 5 14 10 -3 6 -13 10 -21 10
-8 0 -14 -4 -14 -10z"></path>
<path d="M8376 9124 c-20 -20 -21 -53 -1 -60 8 -4 12 -11 8 -18 -3 -6 -1 -6 8
2 7 6 20 12 29 12 12 -1 11 -4 -5 -17 -18 -14 -18 -15 -2 -9 10 3 28 6 40 6
13 0 17 3 11 8 -6 4 -10 17 -9 29 1 12 -2 28 -7 35 -5 9 -8 6 -8 -8 0 -12 -7
-25 -16 -28 -31 -12 -37 -6 -15 15 17 16 20 24 10 35 -15 18 -24 18 -43 -2z"></path>
<path d="M8420 9015 c-7 -9 -8 -15 -2 -15 6 0 13 6 15 13 4 9 6 9 6 0 1 -6 -4
-15 -9 -18 -15 -9 7 -35 29 -34 12 0 11 2 -4 9 -11 5 -15 9 -8 9 13 1 11 27
-4 42 -7 7 -14 5 -23 -6z"></path>
<path d="M8456 8934 c-3 -8 1 -14 10 -14 8 0 13 -4 10 -8 -3 -5 4 -16 15 -25
18 -16 19 -16 19 2 0 10 -7 22 -16 25 -8 3 -13 10 -10 15 3 5 0 11 -8 14 -8 3
-17 -1 -20 -9z"></path>
<path d="M8472 8625 c-13 -15 -13 -32 1 -27 18 6 4 -20 -15 -28 -22 -8 -22 -9
-2 -9 11 -1 26 -7 33 -13 10 -11 11 -7 6 17 -4 17 -6 40 -6 53 1 26 0 26 -17
7z"></path>
<path d="M8478 8523 c-10 -2 -18 -9 -18 -14 0 -14 16 -11 30 6 7 8 11 14 9 14
-2 -1 -12 -3 -21 -6z"></path>
<path d="M8486 8455 c-3 -8 0 -15 7 -16 7 0 3 -4 -8 -9 -11 -5 -14 -9 -7 -9 6
-1 12 -6 12 -12 0 -5 -4 -7 -10 -4 -15 9 -12 -9 6 -31 15 -19 16 -19 10 1 -6
20 -6 20 9 1 11 -14 12 -22 4 -27 -8 -4 -7 -8 2 -12 10 -4 10 -6 2 -6 -7 -1
-13 -11 -12 -23 0 -22 1 -22 9 -3 8 18 9 18 9 2 1 -10 6 -15 11 -12 6 4 8 11
5 16 -4 5 2 9 11 9 16 0 16 2 -2 21 -15 17 -16 23 -5 41 7 11 8 17 2 13 -6 -3
-11 0 -11 9 0 8 6 17 13 20 6 4 2 4 -10 2 -17 -3 -23 1 -23 14 0 24 -16 34
-24 15z"></path>
<path d="M8480 8257 c0 -15 5 -27 11 -27 8 0 8 -4 1 -12 -15 -19 -3 -68 17
-69 12 0 11 -2 -4 -9 -17 -7 -17 -9 -2 -9 18 -1 25 -21 7 -21 -5 0 -10 -11
-10 -24 0 -14 -4 -27 -8 -30 -10 -6 -10 -131 -1 -141 4 -3 9 1 12 10 4 8 3 15
-2 15 -4 0 -8 7 -8 15 0 8 4 15 9 15 4 0 8 -5 8 -12 0 -16 13 -1 17 20 2 9 3
36 4 59 1 24 4 41 8 39 3 -2 7 9 8 25 1 15 -2 31 -8 34 -5 4 -7 10 -4 15 3 5
-1 23 -10 40 -12 24 -13 35 -4 53 6 12 8 19 4 14 -5 -4 -17 0 -27 10 -17 15
-18 15 -18 -10z m25 -227 c-3 -4 0 -10 6 -12 12 -4 1 -38 -13 -38 -7 0 -6 5 1
13 6 8 8 17 4 21 -11 10 -12 37 -2 30 5 -3 7 -9 4 -14z"></path>
<path d="M8480 7890 c0 -5 7 -10 16 -10 8 0 12 5 9 10 -3 6 -10 10 -16 10 -5
0 -9 -4 -9 -10z"></path>
<path d="M8476 7775 c-8 -28 5 -125 16 -125 5 0 6 -9 3 -20 -4 -11 -2 -20 4
-20 6 0 11 15 11 34 0 18 3 60 6 94 6 57 6 61 -14 59 -12 0 -23 -10 -26 -22z"></path>
<path d="M6035 7760 c-3 -5 1 -10 9 -10 9 0 16 5 16 10 0 6 -4 10 -9 10 -6 0
-13 -4 -16 -10z"></path>
<path d="M5945 7740 c-3 -5 -1 -10 4 -10 6 0 11 5 11 10 0 6 -2 10 -4 10 -3 0
-8 -4 -11 -10z"></path>
<path d="M6560 7640 c0 -5 9 -10 21 -10 11 0 17 5 14 10 -3 6 -13 10 -21 10
-8 0 -14 -4 -14 -10z"></path>
<path d="M6481 7628 c-1 -20 14 -24 25 -6 4 6 3 8 -4 4 -5 -3 -13 0 -15 6 -3
8 -6 6 -6 -4z"></path>
<path d="M6241 7611 c-10 -6 -9 -10 3 -14 8 -3 18 -2 21 3 8 13 -9 20 -24 11z"></path>
<path d="M6147 7449 c7 -7 15 -10 18 -7 3 3 -2 9 -12 12 -14 6 -15 5 -6 -5z"></path>
<path d="M3603 7160 c0 -25 2 -35 4 -22 2 12 2 32 0 45 -2 12 -4 2 -4 -23z"></path>
<path d="M8560 6978 c0 -15 4 -30 10 -33 9 -6 6 -95 -5 -145 -3 -14 -7 -50 -9
-81 -2 -31 -7 -71 -11 -89 -5 -22 -4 -30 4 -26 7 5 9 1 5 -8 -3 -9 -2 -16 4
-16 6 0 13 6 15 13 3 6 6 2 6 -10 1 -13 -4 -23 -9 -23 -6 0 -5 -6 2 -14 17
-18 27 -11 21 14 -3 13 0 20 8 20 12 0 12 2 0 9 -8 5 -11 16 -7 29 11 33 16
172 7 172 -5 0 -6 12 -4 28 9 58 10 92 2 92 -5 0 -9 12 -9 28 0 15 -7 36 -15
46 -14 19 -15 19 -15 -6z"></path>
<path d="M5737 6294 c-4 -4 5 -20 19 -37 l25 -30 -27 -24 -27 -23 27 0 c29 0
63 26 66 50 1 8 -1 25 -5 38 -6 19 -13 22 -31 18 -14 -4 -24 -2 -24 4 0 11
-13 13 -23 4z"></path>
<path d="M5621 6162 c29 -19 28 -42 -2 -42 -11 0 -19 -7 -19 -16 0 -8 -4 -13
-8 -10 -5 3 -17 -14 -27 -37 -9 -23 -25 -48 -33 -54 -9 -7 -11 -13 -6 -13 11
0 12 -28 2 -45 -3 -6 -6 -27 -6 -49 -1 -21 -5 -43 -9 -50 -5 -6 -8 -18 -7 -26
2 -40 17 -98 29 -121 8 -14 12 -29 9 -32 -3 -3 0 -21 6 -39 11 -29 10 -40 -5
-72 -17 -36 -17 -37 1 -51 18 -14 17 -15 -8 -11 -16 3 -28 1 -28 -4 0 -4 -25
-11 -57 -15 -39 -5 -52 -10 -42 -16 11 -7 10 -9 -6 -10 -11 -1 -30 -1 -42 0
-13 1 -23 -3 -23 -10 0 -6 -9 -9 -20 -6 -11 3 -22 1 -25 -3 -3 -4 -14 -6 -25
-3 -12 3 -22 -1 -26 -11 -3 -9 -10 -13 -15 -10 -5 3 -9 0 -9 -6 0 -7 -6 -10
-13 -7 -8 3 -20 1 -28 -4 -11 -7 -10 -9 6 -9 17 0 17 -2 5 -10 -13 -9 -13 -11
-1 -19 12 -8 10 -12 -12 -22 -15 -7 -27 -16 -27 -20 0 -4 -13 -5 -30 -3 -25 4
-29 2 -25 -15 2 -12 0 -21 -6 -21 -5 0 -9 -9 -9 -21 0 -15 -4 -19 -16 -15 -9
3 -17 6 -19 6 -3 0 5 16 17 35 14 24 19 45 15 65 -8 36 11 50 30 25 16 -23 17
-35 2 -35 -5 0 -7 5 -4 10 3 6 1 10 -5 10 -21 0 -4 -25 17 -26 14 -1 20 3 16
12 -3 8 0 14 6 14 6 0 11 5 11 10 0 6 -7 10 -16 10 -8 0 -12 5 -9 10 3 6 0 10
-7 10 -11 0 -11 2 0 9 11 6 11 10 0 18 -23 18 -48 23 -48 10 0 -7 -13 -18 -30
-24 -18 -7 -30 -18 -30 -29 0 -9 -3 -14 -6 -11 -17 17 -51 -50 -45 -87 1 -4
-4 -14 -10 -22 -8 -10 -8 -14 0 -14 6 0 11 -7 11 -15 0 -8 -5 -15 -11 -15 -6
0 -9 -6 -6 -14 5 -13 -18 -39 -38 -44 -5 -1 -9 -13 -9 -27 1 -14 -3 -25 -7
-25 -18 0 -8 -16 21 -32 28 -16 43 -58 20 -58 -5 0 -10 -11 -10 -25 0 -14 5
-25 11 -25 5 0 8 -4 4 -9 -3 -5 6 -21 20 -35 14 -14 25 -30 25 -36 0 -7 6 -10
13 -7 6 2 11 9 10 14 -1 5 7 9 17 9 10 0 16 -5 13 -10 -4 -5 0 -7 9 -4 20 8
78 -39 78 -63 0 -11 11 -31 24 -44 13 -13 21 -26 18 -29 -3 -3 -1 -6 4 -6 6 0
10 -37 11 -85 1 -47 6 -91 12 -99 6 -7 9 -15 6 -18 -3 -2 -1 -26 4 -52 5 -27
5 -49 0 -52 -5 -3 -7 -9 -4 -14 7 -12 25 -144 31 -230 2 -36 6 -76 8 -90 2
-14 4 -43 5 -66 1 -33 8 -48 43 -82 22 -23 50 -42 60 -42 10 0 29 -11 41 -24
12 -13 38 -30 57 -39 19 -8 44 -23 55 -34 11 -11 27 -17 34 -15 8 3 11 0 7 -6
-7 -12 21 -26 47 -23 10 1 17 -4 17 -14 0 -9 6 -15 13 -14 20 3 77 -22 71 -32
-3 -5 6 -9 20 -9 15 0 38 0 53 0 33 0 133 31 133 41 0 4 31 19 70 34 51 20 77
36 100 65 28 36 46 45 173 93 32 11 29 8 112 103 33 38 115 124 183 190 67 67
122 127 122 132 0 6 10 19 23 29 13 10 33 39 45 64 12 26 47 73 77 105 30 32
55 61 55 64 0 4 11 12 24 20 13 7 27 21 29 31 3 11 19 24 36 30 17 6 31 16 31
21 0 12 97 106 150 146 19 14 44 36 55 48 24 26 121 94 134 94 6 0 15 8 20 18
6 9 11 13 11 8 0 -5 10 4 22 20 31 39 34 78 8 97 -11 8 -20 18 -18 23 4 15
-13 54 -23 54 -6 0 -8 4 -4 9 3 5 -3 12 -13 16 -22 6 -52 -3 -52 -16 0 -5 -13
-9 -29 -9 -32 0 -61 -24 -39 -33 10 -4 10 -7 -1 -15 -7 -5 -11 -14 -7 -20 4
-6 -4 -20 -16 -31 -12 -12 -19 -21 -15 -21 16 0 -24 -59 -43 -65 -21 -7 -110
24 -110 38 0 4 -11 7 -24 7 -13 0 -26 6 -29 14 -6 15 -67 49 -75 41 -3 -3 1
-5 8 -5 7 0 10 -3 7 -6 -4 -4 -14 -1 -23 6 -19 16 -92 14 -112 -3 -8 -6 -29
-11 -46 -10 -20 1 -23 0 -8 -4 12 -2 20 -9 16 -14 -3 -5 -10 -7 -15 -4 -5 4
-9 2 -9 -4 0 -5 -8 -9 -17 -9 -10 1 -37 -4 -61 -11 -34 -9 -47 -9 -58 0 -11 9
-14 9 -14 -1 0 -7 -6 -10 -14 -7 -8 3 -17 -1 -20 -9 -3 -8 -13 -14 -21 -14 -9
0 -13 5 -10 10 3 6 2 10 -3 10 -13 0 -36 -28 -38 -47 -4 -22 -11 -26 -17 -9
-4 9 0 22 8 30 8 8 15 21 15 29 0 21 75 97 95 97 9 0 13 5 10 10 -5 8 15 13
41 9 3 0 16 7 30 16 14 9 28 14 31 11 3 -3 11 1 17 9 13 17 91 47 128 49 14 0
24 4 22 8 -3 4 11 10 31 14 19 3 35 12 35 19 0 7 8 19 17 26 11 10 14 10 9 2
-5 -9 0 -13 16 -13 16 0 19 3 10 9 -21 13 21 21 43 9 12 -7 20 -7 25 2 11 17
45 7 44 -13 -1 -11 5 -17 18 -17 18 0 19 2 7 18 -13 16 -12 16 4 3 10 -8 38
-16 63 -17 24 -1 51 -7 59 -14 12 -10 16 -9 21 3 3 9 14 14 25 12 10 -2 22 1
25 7 4 7 2 8 -4 4 -7 -4 -12 -5 -12 -1 0 3 11 10 24 15 21 8 23 14 20 50 -5
51 -12 63 -31 56 -8 -3 -11 -1 -8 4 5 9 -15 15 -37 11 -5 0 -8 3 -8 9 0 5 -7
10 -15 10 -13 0 -16 5 -14 26 0 10 -82 45 -91 39 -5 -3 -11 -1 -15 4 -3 6 -11
8 -18 5 -27 -10 -44 101 -20 139 4 6 8 27 10 46 1 19 11 43 20 55 17 19 17 20
1 7 -11 -8 -18 -9 -18 -3 0 6 10 16 21 23 17 9 19 13 8 20 -12 7 -11 9 1 9 13
0 13 1 0 10 -13 8 -8 14 11 12 3 -1 4 9 2 21 -4 17 -12 22 -39 24 -33 2 -39
-4 -35 -34 1 -7 -4 -23 -11 -35 -6 -13 -11 -30 -10 -38 4 -30 -42 -72 -88 -80
-50 -10 -148 -2 -167 12 -7 5 -17 7 -23 3 -5 -3 -10 -1 -10 5 0 7 -7 9 -16 6
-11 -4 -18 1 -21 14 -5 19 -23 28 -23 12 0 -5 -26 -4 -57 1 -69 11 -213 15
-265 6 -20 -4 -39 -4 -42 -1 -3 3 -21 7 -38 9 -18 2 -39 11 -45 20 -7 9 -13
12 -13 5 0 -6 -12 0 -26 13 -15 14 -39 26 -53 26 -117 7 -147 6 -158 -3 -7 -6
-13 -8 -13 -4 0 3 -23 -8 -50 -24 -28 -17 -60 -30 -71 -30 -11 0 -18 -4 -15
-8 3 -5 -14 -7 -37 -5 -22 2 -56 -2 -75 -8 -32 -11 -36 -9 -67 24 -32 34 -34
39 -32 102 1 38 7 69 14 73 7 4 15 23 18 41 3 18 15 41 26 50 11 9 21 31 24
49 3 26 0 32 -15 32 -10 0 -22 5 -25 10 -3 6 -14 10 -23 10 -13 0 -10 -5 9
-18z m1219 -1022 c0 -5 -5 -10 -11 -10 -5 0 -7 5 -4 10 3 6 8 10 11 10 2 0 4
-4 4 -10z m-455 -112 c7 -7 -58 -38 -77 -37 -10 0 -10 2 0 6 6 2 10 9 6 14 -3
5 2 9 10 9 9 0 16 4 16 8 0 9 36 9 45 0z m-729 -14 c-3 -8 -2 -12 4 -9 14 9
12 -4 -2 -18 -7 -7 -24 -13 -38 -15 -13 -1 -28 -9 -33 -17 -10 -18 -24 -19
-41 -3 -17 16 -9 46 15 53 10 4 19 11 19 16 0 5 18 9 41 9 33 0 40 -3 35 -16z
m119 -14 c4 -7 14 -6 28 1 21 10 21 10 3 -5 -13 -11 -23 -13 -30 -6 -13 13
-29 13 -21 0 3 -6 -1 -7 -10 -3 -13 5 -14 7 -3 14 17 11 26 11 33 -1z m-335
-30 c0 -5 -2 -10 -4 -10 -3 0 -8 5 -11 10 -3 6 -1 10 4 10 6 0 11 -4 11 -10z
m430 -457 c0 5 7 1 16 -7 21 -22 10 -56 -16 -49 -11 3 -20 9 -20 14 0 5 -6 6
-14 3 -26 -10 -30 18 -6 38 18 15 25 16 31 6 5 -7 9 -9 9 -5z m-100 -39 c0 -2
-9 -4 -20 -4 -11 0 -20 4 -20 9 0 5 9 7 20 4 11 -3 20 -7 20 -9z m8 -37 c-11
-12 -15 -12 -26 2 -7 9 -10 10 -6 2 5 -9 3 -12 -5 -7 -16 10 -4 26 20 26 10 0
20 6 20 13 1 6 3 4 6 -5 2 -10 -2 -24 -9 -31z"></path>
<path d="M4403 6095 c-23 -5 -52 -20 -63 -33 -11 -12 -27 -22 -35 -22 -8 0
-15 -4 -15 -9 0 -5 -15 -12 -33 -15 -30 -6 -33 -9 -33 -42 0 -20 -6 -39 -14
-45 -8 -5 -12 -9 -8 -9 4 0 3 -12 -2 -26 -8 -19 -7 -34 3 -53 8 -16 10 -35 6
-47 -4 -10 -8 -33 -8 -51 -1 -17 -6 -35 -11 -38 -6 -4 -7 -11 -4 -17 5 -8 1
-9 -11 -4 -18 7 -18 6 0 -14 14 -15 20 -17 26 -8 4 7 10 10 14 7 3 -3 -5 -14
-17 -25 -12 -10 -18 -13 -13 -5 5 9 4 12 -2 8 -6 -4 -8 -18 -5 -32 3 -18 0
-25 -12 -25 -9 0 -16 -4 -16 -10 0 -5 5 -10 10 -10 6 0 10 -7 10 -16 0 -9 -5
-12 -11 -8 -7 4 -10 1 -7 -7 3 -8 13 -18 24 -24 18 -9 18 -13 6 -35 -13 -23
-13 -23 -9 -2 3 13 1 20 -5 16 -5 -4 -7 -19 -4 -35 4 -20 1 -31 -12 -39 -15
-10 -15 -10 3 -6 11 3 26 2 34 -3 11 -7 9 -10 -9 -16 l-22 -7 21 -22 c27 -28
14 -49 -25 -41 -22 5 -25 4 -14 -4 13 -9 13 -11 -2 -11 -25 0 -32 -19 -11 -28
21 -8 31 -37 10 -29 -8 3 -20 2 -27 -3 -15 -9 -5 -30 15 -30 8 0 11 -7 8 -20
-3 -11 -10 -20 -16 -20 -6 0 -19 -8 -29 -17 -22 -20 -40 -7 -42 29 -1 17 -6
22 -21 20 -27 -5 -32 -12 -16 -21 10 -7 10 -9 -2 -14 -9 -3 -30 8 -52 30 -25
24 -40 32 -47 25 -11 -11 -17 -122 -7 -122 4 0 5 -14 3 -31 -3 -22 0 -28 9
-23 9 6 9 4 -1 -8 -10 -13 -10 -17 2 -21 19 -7 56 -109 49 -135 -2 -11 0 -29
6 -40 5 -10 13 -34 16 -51 3 -18 12 -42 19 -54 7 -12 16 -37 20 -56 3 -19 13
-43 22 -52 9 -10 20 -37 25 -60 6 -23 21 -55 35 -72 18 -22 23 -37 19 -57 -4
-18 1 -35 16 -54 20 -25 28 -49 46 -138 3 -17 15 -31 34 -38 20 -9 40 -34 69
-86 22 -40 40 -79 40 -85 0 -7 11 -24 24 -38 13 -15 32 -50 42 -79 25 -71 39
-82 58 -43 9 16 17 38 19 48 4 20 26 100 35 123 15 42 44 149 48 175 2 17 8
75 13 130 6 55 12 116 15 135 3 19 7 60 10 90 2 30 11 75 20 100 10 29 12 48
6 54 -15 15 -12 53 5 70 9 8 16 19 15 23 0 4 5 8 11 8 6 0 18 9 25 21 13 18
12 20 -11 20 -14 0 -25 -4 -25 -8 0 -5 -6 -3 -14 4 -10 9 -11 15 -2 20 8 5 7
8 -3 8 -10 0 -12 10 -7 43 4 23 9 65 11 92 5 69 9 89 18 96 4 3 9 16 10 27 1
12 5 22 9 22 8 0 31 77 48 160 5 30 13 66 17 80 11 45 5 210 -9 220 -3 3 -7
39 -9 80 -3 90 16 160 43 160 10 0 18 5 18 11 0 6 13 8 30 6 19 -4 29 -1 27 6
-1 7 4 11 11 9 10 -2 10 2 0 18 -7 11 -16 20 -20 20 -12 0 -38 57 -30 66 4 5
3 6 -2 1 -13 -10 -56 32 -57 57 0 12 -3 16 -5 9 -3 -7 -11 -10 -17 -8 -7 2
-65 6 -129 9 -65 2 -121 6 -125 8 -5 2 -27 -1 -50 -7z m-216 -567 c-15 -9 -19
-4 -11 16 5 14 9 15 15 5 5 -8 3 -17 -4 -21z m13 -88 c0 -5 -2 -10 -4 -10 -3
0 -8 5 -11 10 -3 6 -1 10 4 10 6 0 11 -4 11 -10z m-53 -146 c-3 -3 -12 -4 -19
-1 -8 3 -5 6 6 6 11 1 17 -2 13 -5z m523 -428 c0 -3 -4 -8 -10 -11 -5 -3 -10
-1 -10 4 0 6 5 11 10 11 6 0 10 -2 10 -4z"></path>
<path d="M7037 5964 c-4 -4 -4 -10 -1 -15 6 -10 34 0 34 12 0 10 -24 12 -33 3z"></path>
<path d="M8105 5767 c-18 -14 -18 -17 -4 -34 9 -10 22 -34 29 -53 18 -48 29
-60 53 -60 11 0 18 3 14 6 -8 9 47 54 66 54 24 0 30 18 13 42 -9 12 -16 19
-16 14 0 -5 -7 -3 -15 4 -8 7 -13 16 -10 19 4 8 2 9 -65 17 -31 4 -51 1 -65
-9z"></path>
<path d="M3768 5443 c-11 -12 -15 -27 -11 -41 l6 -23 14 21 c8 11 13 30 11 41
-3 21 -3 21 -20 2z"></path>
<path d="M3938 5248 c2 -10 10 -17 18 -14 7 3 15 0 18 -7 2 -7 5 -2 5 11 1 12
-2 22 -6 23 -5 0 -15 2 -24 4 -12 2 -15 -2 -11 -17z"></path>
<path d="M4660 4741 c8 -6 18 -7 24 -4 5 3 6 1 2 -5 -4 -7 -15 -12 -24 -13
-11 0 -12 -2 -4 -6 14 -5 42 14 42 28 0 5 -12 9 -27 9 -21 0 -24 -3 -13 -9z"></path>
<path d="M8111 3430 c1 -14 4 -38 8 -55 6 -24 2 -35 -17 -52 -12 -13 -27 -23
-31 -23 -13 0 -39 -79 -50 -150 -5 -36 -15 -121 -21 -190 -6 -69 -16 -159 -22
-200 -6 -42 -9 -181 -7 -320 l4 -245 -29 -60 c-16 -33 -28 -63 -28 -67 3 -11
-3 -10 -33 4 -14 6 -25 19 -25 30 0 22 -10 23 -58 3 -48 -20 -110 -21 -146 -2
-16 9 -34 14 -38 10 -5 -3 -15 3 -23 13 -11 16 -10 20 4 31 11 9 12 12 3 13
-7 0 -10 5 -7 10 3 6 -2 10 -12 11 -10 0 -13 3 -6 5 7 3 9 18 6 41 -4 25 -3
34 5 29 9 -5 35 79 37 119 0 6 -27 10 -60 11 -34 0 -70 6 -83 15 -20 12 -26
12 -53 -3 -17 -10 -37 -18 -45 -18 -8 0 -13 -5 -11 -11 1 -6 -7 -16 -18 -22
-11 -7 -22 -15 -25 -18 -3 -4 -16 -10 -29 -14 -24 -7 -24 -8 -5 -22 18 -15 18
-15 -3 -9 -13 4 -32 1 -47 -9 -17 -11 -43 -15 -90 -14 -36 1 -66 5 -66 9 0 13
-51 -2 -57 -16 -3 -8 -13 -14 -22 -14 -14 0 -14 2 -1 10 13 8 12 10 -2 10 -10
0 -18 -4 -18 -10 0 -5 -5 -10 -11 -10 -5 0 -7 4 -4 10 3 6 -1 7 -10 4 -9 -4
-14 -13 -11 -20 3 -8 -1 -14 -11 -14 -9 0 -13 -3 -10 -7 11 -10 -26 -32 -54
-33 -36 0 -44 12 -17 27 22 12 22 12 3 13 -12 0 -26 -5 -33 -12 -8 -8 -12 -9
-12 -1 0 15 29 43 43 42 8 0 7 -2 -1 -6 -9 -3 -4 -10 13 -19 15 -8 30 -14 34
-14 10 0 41 60 40 78 0 10 -3 12 -5 5 -3 -7 -12 -9 -20 -6 -8 3 -14 0 -14 -5
0 -6 8 -13 18 -15 15 -4 15 -5 -2 -6 -12 -1 -16 -6 -13 -16 4 -8 2 -17 -3 -20
-6 -4 -10 1 -10 10 0 9 -4 14 -8 11 -4 -2 -8 4 -9 15 -2 22 32 49 61 49 16 0
17 3 8 12 -7 7 -12 16 -12 20 0 13 28 9 33 -4 2 -7 2 -3 0 10 -3 18 1 22 14
20 16 -3 19 4 14 43 0 5 -5 8 -10 4 -5 -3 -12 -2 -15 3 -3 5 -19 7 -35 4 -17
-2 -28 -8 -25 -13 3 -5 0 -9 -6 -9 -6 0 -9 -4 -6 -9 4 -5 -5 -4 -19 2 -21 10
-22 13 -7 19 16 6 16 7 -1 7 -10 1 -21 -7 -25 -17 -4 -9 -16 -17 -27 -17 -16
0 -21 -8 -23 -37 -3 -39 -15 -50 -26 -22 -9 22 -8 26 6 18 7 -4 8 -3 4 4 -9
16 22 62 43 62 12 0 10 5 -9 20 -27 21 -51 27 -32 8 15 -15 16 -32 2 -23 -6 4
-10 3 -9 -2 5 -26 -9 -33 -50 -24 -2 1 2 7 8 14 6 8 8 17 4 21 -4 4 0 4 8 1
19 -7 34 31 15 39 -6 3 -1 3 12 0 13 -3 22 -1 22 6 0 6 5 8 11 4 8 -5 8 -9 -1
-14 -8 -5 -7 -9 5 -13 9 -4 13 -3 10 2 -3 5 -1 12 4 16 13 7 4 31 -12 33 -7 0
-26 2 -43 3 -30 2 -32 4 -24 39 0 3 7 -3 14 -13 8 -10 16 -15 19 -10 3 4 -5
16 -18 25 -22 16 -24 16 -42 0 -11 -9 -19 -23 -17 -30 1 -7 0 -8 -3 -2 -2 5
-8 8 -13 5 -5 -3 -7 6 -6 19 3 23 2 24 -19 10 -12 -8 -25 -11 -28 -7 -4 3 -7
2 -7 -4 0 -6 -11 -8 -25 -5 -13 2 -33 1 -42 -3 -10 -3 -20 -6 -22 -5 -2 1 -8
-4 -12 -12 -7 -10 -9 -10 -9 0 0 17 -31 15 -45 -4 -10 -14 -13 -14 -26 -2 -15
16 -49 20 -49 6 0 -4 -7 -8 -15 -8 -8 0 -15 -3 -15 -7 0 -5 -16 -9 -35 -10
-20 -1 -33 3 -30 8 6 9 -19 13 -62 9 -13 -1 -23 4 -23 12 0 7 -7 2 -16 -10
l-16 -23 -34 21 c-20 11 -33 17 -31 13 3 -5 -1 -14 -9 -21 -12 -11 -14 -9 -14
8 0 21 -14 27 -25 10 -3 -5 -19 -10 -36 -10 -29 0 -42 -24 -16 -33 6 -2 9 -8
5 -12 -4 -4 -14 2 -24 13 -16 19 -20 20 -46 6 -17 -9 -28 -23 -28 -35 0 -11
-10 -24 -22 -29 -13 -5 -17 -9 -10 -9 7 -1 29 6 48 14 38 16 59 12 50 -10 -6
-18 29 -49 48 -42 11 4 13 1 9 -10 -6 -15 -4 -15 17 0 35 24 54 22 47 -5 -6
-22 -6 -22 8 -4 17 23 19 36 5 36 -14 0 -13 47 2 56 8 5 9 2 5 -9 -8 -22 7
-22 32 -1 11 10 17 24 14 32 -5 11 -1 13 16 7 16 -5 26 -1 36 12 13 17 13 16
11 -9 -2 -19 1 -25 11 -21 9 4 11 0 7 -11 -3 -8 -9 -14 -12 -13 -4 1 -8 -1 -9
-5 -6 -17 -2 -26 10 -24 6 0 14 -3 15 -9 6 -17 24 -35 36 -35 6 0 4 5 -4 10
-8 5 -10 10 -4 10 5 0 15 -5 21 -11 15 -15 43 -4 43 16 0 13 -7 15 -37 9 -35
-7 -37 -6 -24 10 8 9 16 14 19 11 3 -3 12 5 19 17 10 18 12 20 13 6 0 -10 7
-18 16 -18 8 0 12 -4 9 -10 -3 -5 0 -10 7 -10 10 0 11 -2 0 -8 -7 -5 -10 -16
-7 -24 5 -12 -3 -17 -29 -22 -30 -6 -36 -11 -42 -41 -6 -35 -7 -35 -63 -36
-46 -1 -51 -3 -26 -9 29 -7 29 -8 4 -9 -14 0 -29 -4 -33 -8 -3 -4 -17 -9 -29
-11 -12 -2 -29 -5 -36 -6 -8 -2 -17 -8 -19 -15 -3 -9 2 -11 18 -6 17 6 21 4
15 -6 -5 -8 1 -5 13 5 12 11 22 14 22 8 0 -6 6 -9 14 -6 24 9 47 -9 35 -26 -8
-11 -12 -12 -16 -2 -6 14 -49 16 -58 2 -3 -5 -15 -10 -26 -10 -11 0 -17 5 -14
10 3 6 -1 10 -9 10 -21 0 -20 -10 1 -25 12 -9 23 -10 35 -4 14 7 18 6 18 -6 0
-9 5 -13 10 -10 6 3 13 -1 16 -9 3 -9 11 -13 18 -9 7 4 8 3 1 -5 -5 -6 -21
-12 -35 -15 -22 -4 -21 -4 6 -6 20 -1 31 -6 31 -16 0 -11 -4 -12 -11 -5 -13
13 -63 13 -71 0 -4 -6 1 -7 12 -4 13 5 12 2 -5 -10 -25 -20 -50 -12 -32 9 10
12 6 12 -18 3 -22 -9 -29 -17 -28 -36 1 -14 -5 -27 -11 -29 -7 -3 -13 3 -13
12 0 16 -2 16 -26 0 -15 -9 -23 -12 -20 -6 4 6 3 11 -3 11 -5 0 -12 -4 -16 -9
-8 -14 34 -34 48 -23 7 5 21 4 35 -3 21 -12 22 -14 7 -29 -20 -20 -23 -20 -43
0 -15 15 -16 15 -23 -2 -7 -18 -7 -18 -14 -1 -5 11 -14 16 -23 12 -12 -5 -13
-3 -2 10 11 13 11 19 -3 33 -11 10 -17 12 -17 4 0 -7 -5 -12 -11 -12 -5 0 -8
3 -6 8 3 4 -8 7 -23 8 -17 1 -31 -5 -34 -13 -3 -8 -2 -11 3 -8 6 3 14 -3 20
-12 6 -10 11 -12 11 -5 0 6 12 12 28 12 19 0 23 -3 13 -9 -9 -6 -10 -11 -3
-15 6 -4 9 -13 5 -21 -3 -8 0 -15 7 -15 6 0 9 4 5 9 -3 5 -1 12 5 16 6 3 13 0
16 -8 4 -11 18 -14 44 -13 39 3 50 -15 19 -35 -13 -8 -6 -13 14 -10 11 2 9 -4
-13 -29 -14 -17 -27 -21 -47 -17 -24 4 -25 3 -10 -7 9 -7 14 -16 10 -19 -10
-10 -25 -8 -18 2 3 5 1 12 -5 16 -5 3 -10 15 -10 27 0 16 5 19 25 16 14 -3 25
-1 25 3 0 10 0 10 -55 12 -37 2 -40 0 -43 -26 -3 -21 2 -29 19 -35 l23 -9 -22
-5 c-12 -4 -22 -12 -21 -20 0 -10 2 -10 6 0 10 24 25 12 18 -16 -5 -23 -2 -28
15 -29 18 -2 25 12 21 39 0 4 6 5 14 2 8 -4 15 -1 15 5 0 6 9 11 20 11 11 0
20 -7 20 -16 0 -9 -8 -14 -17 -13 -30 2 -47 -1 -40 -8 4 -3 2 -12 -4 -19 -13
-16 -4 -48 11 -39 5 3 10 2 10 -4 0 -17 -20 -23 -35 -11 -10 9 -16 7 -24 -7
-10 -15 -10 -14 -5 9 4 19 0 32 -15 47 -13 13 -16 21 -8 25 7 2 -3 5 -21 5
-20 1 -31 -3 -27 -9 3 -5 1 -10 -4 -10 -17 0 -13 -52 7 -73 9 -11 12 -17 5
-14 -6 4 -14 3 -18 -3 -10 -17 -33 -11 -31 7 1 12 -7 19 -24 21 -20 2 -22 1
-10 -7 9 -7 10 -11 3 -11 -6 0 -15 5 -18 10 -3 6 -15 10 -26 10 -10 0 -19 4
-19 9 0 5 11 8 25 5 18 -3 25 0 25 11 0 8 -5 15 -11 15 -8 0 -8 4 1 15 17 21
8 42 -11 23 -19 -19 -72 -30 -66 -14 3 7 -5 13 -16 14 -17 1 -18 -1 -7 -8 8
-5 12 -11 9 -14 -2 -3 -22 11 -43 30 -21 19 -35 38 -32 42 4 3 10 2 14 -3 9
-12 35 -13 43 -1 4 5 16 2 28 -6 11 -8 18 -18 14 -21 -3 -4 -1 -7 5 -7 7 0 12
9 12 21 0 11 4 17 10 14 17 -11 -3 29 -25 48 -11 10 -14 16 -7 12 7 -4 12 0
12 10 0 8 -10 20 -22 25 l-23 9 23 0 c19 1 22 6 22 41 0 36 4 42 26 39 4 0 11
5 15 13 7 10 9 10 9 1 0 -7 8 -13 18 -12 10 0 12 3 5 6 -7 2 -13 11 -13 20 0
10 -6 12 -20 8 -23 -7 -26 4 -7 24 10 11 9 12 -3 5 -32 -19 -74 -12 -107 16
-17 16 -29 31 -25 35 3 3 -1 3 -9 0 -9 -3 -28 -1 -42 4 -32 12 -57 5 -57 -17
0 -13 3 -12 14 4 8 11 18 15 23 10 4 -5 2 -11 -4 -13 -15 -5 -17 -33 -3 -33 6
0 10 -8 10 -17 0 -14 2 -15 9 -4 7 11 10 9 16 -8 4 -13 15 -21 28 -21 18 0 19
2 7 10 -13 8 -13 10 2 10 9 0 19 -4 22 -8 2 -4 25 -7 50 -7 25 1 46 -3 46 -8
0 -5 -16 -7 -36 -4 -26 4 -41 2 -52 -9 -12 -13 -16 -13 -23 -2 -6 8 -9 9 -9 2
0 -7 -7 -15 -16 -18 -11 -4 -15 -2 -11 8 4 11 -1 13 -20 10 -37 -7 -90 6 -72
17 9 6 10 9 2 9 -6 0 -15 -4 -18 -10 -11 -19 -22 -10 -18 14 3 13 0 27 -6 31
-6 3 -11 3 -10 -2 1 -4 1 -23 0 -41 -1 -28 -3 -31 -15 -20 -7 8 -16 23 -20 34
-5 16 -13 19 -41 16 -24 -3 -35 0 -35 9 0 10 -3 10 -12 1 -7 -7 -16 -12 -21
-12 -5 0 -2 6 5 13 15 15 48 18 48 5 0 -5 6 -3 14 4 8 7 12 16 10 20 -3 4 4
11 13 17 10 5 14 13 10 17 -4 4 0 16 10 26 9 11 11 18 5 18 -7 0 -12 7 -12 15
0 8 -4 15 -10 15 -6 0 -6 9 -1 23 4 12 6 29 3 37 -4 13 -3 13 10 2 11 -9 18
-10 23 -2 3 6 10 8 15 5 12 -8 22 27 10 39 -7 7 -10 6 -10 -2 0 -7 -8 -12 -17
-12 -15 0 -14 2 3 15 22 16 84 20 84 5 0 -5 23 -10 50 -10 29 0 50 -5 50 -11
0 -5 5 -7 10 -4 8 5 7 11 -1 21 -9 11 -8 14 7 14 11 0 15 4 9 8 -18 13 -13 38
8 39 11 1 24 6 28 10 4 4 -21 8 -57 9 -60 1 -86 -10 -46 -18 9 -3 -9 -5 -41
-6 -63 -2 -81 -8 -72 -23 4 -5 -3 -9 -14 -9 -12 0 -21 7 -21 15 0 12 -4 13
-18 6 -10 -5 -24 -6 -31 -2 -7 4 -23 6 -37 3 -19 -3 -24 0 -24 17 0 21 -1 21
-26 4 -15 -9 -22 -19 -15 -21 13 -4 15 -32 2 -32 -12 0 -22 -43 -12 -53 12
-12 37 2 49 29 12 25 32 34 28 12 -6 -36 -19 -58 -28 -52 -7 5 -9 1 -5 -9 3
-9 2 -19 -3 -22 -6 -4 -10 1 -10 9 0 9 -5 16 -12 16 -6 0 -8 -3 -5 -7 4 -3 1
-13 -6 -21 -9 -13 -9 -14 1 -8 7 4 12 2 12 -4 0 -17 -42 -1 -63 24 -13 14 -17
30 -13 48 3 16 1 28 -5 28 -6 0 -7 5 -4 10 3 6 -5 10 -19 10 -14 0 -28 -4 -31
-10 -3 -5 -17 -10 -30 -10 -16 0 -25 -7 -29 -25 -4 -14 -11 -23 -16 -20 -11 7
-14 -8 -3 -18 3 -4 12 1 20 11 13 16 14 15 8 -5 -5 -17 -2 -23 10 -23 9 0 18
12 22 30 3 17 9 30 13 30 14 0 19 -27 7 -39 -6 -6 -7 -14 -3 -18 4 -4 11 -1
17 7 8 13 11 13 20 -3 5 -9 18 -17 27 -17 14 0 14 -2 3 -9 -7 -5 -10 -14 -6
-20 5 -9 10 -9 20 -1 8 7 16 7 19 2 7 -12 -18 -35 -27 -25 -4 3 -23 6 -42 5
-27 -1 -35 3 -35 15 0 13 3 14 12 5 19 -19 28 -14 28 13 0 14 -4 25 -10 25 -5
0 -10 -5 -10 -11 0 -6 -9 -8 -20 -4 -16 5 -19 3 -13 -11 4 -11 -1 -22 -12 -30
-13 -10 -15 -14 -5 -14 10 0 11 -3 3 -11 -6 -6 -9 -18 -6 -25 3 -8 -1 -14 -9
-14 -18 0 -18 -42 0 -56 10 -7 13 -20 8 -37 -4 -16 -1 -31 8 -39 9 -10 11 -20
4 -31 -12 -23 -34 -21 -41 2 -2 11 -15 21 -28 24 -22 4 -22 4 4 6 15 0 27 4
28 9 0 4 3 21 5 37 4 22 2 27 -6 19 -6 -6 -12 -21 -13 -33 -2 -29 -32 -27 -74
5 -32 24 -33 24 -33 4 0 -11 7 -23 15 -26 8 -4 15 -13 15 -21 0 -8 4 -12 8 -9
5 3 15 -7 23 -21 11 -21 11 -27 2 -30 -16 -6 -17 -35 -1 -51 8 -8 8 -15 -2
-27 -7 -8 -10 -19 -6 -23 4 -4 15 4 25 17 19 25 24 22 35 -23 6 -23 4 -27 -8
-23 -8 3 -22 -3 -32 -14 -10 -11 -24 -17 -31 -15 -8 4 -13 -3 -13 -18 0 -29
-21 -48 -39 -36 -24 14 -41 -1 -41 -36 0 -19 -5 -34 -12 -34 -12 0 -2 -15 10
-15 27 -1 43 -35 16 -35 -8 0 -12 -5 -9 -10 3 -5 2 -10 -4 -10 -13 0 -23 -33
-15 -54 3 -9 12 -16 20 -16 19 0 18 -36 -2 -44 -9 -3 -20 -4 -25 -1 -5 4 -6
-1 -3 -9 3 -9 10 -16 15 -16 5 0 8 -5 6 -11 -1 -6 9 -13 23 -14 14 -2 19 -1
13 1 -28 12 2 53 40 54 15 0 15 3 5 21 -9 15 -10 23 -2 26 6 2 9 15 6 30 -4
22 -2 25 16 21 15 -4 22 0 26 17 3 13 15 27 26 30 11 3 20 11 20 16 0 5 5 9
11 9 5 0 8 -4 4 -9 -3 -5 -1 -12 4 -15 5 -3 7 -15 4 -26 -3 -12 0 -20 7 -20 7
0 10 -6 7 -14 -3 -8 1 -17 9 -20 9 -3 14 1 14 12 0 14 2 14 9 3 6 -9 4 -19 -5
-28 -19 -19 -18 -22 6 -16 13 3 20 0 20 -8 0 -9 3 -10 8 -3 12 18 52 24 52 7
0 -8 7 -21 15 -29 8 -9 15 -13 15 -9 0 3 14 -2 31 -10 22 -12 29 -21 25 -33
-4 -11 0 -9 11 5 12 15 22 20 32 14 11 -7 10 -11 -5 -20 -11 -6 -13 -11 -6
-11 7 0 10 -5 6 -11 -4 -7 -24 -9 -51 -5 -38 4 -44 3 -39 -10 3 -9 6 -20 6
-25 0 -5 8 -9 18 -10 14 0 13 -3 -5 -16 -23 -16 -33 -73 -13 -73 14 0 12 -27
-2 -34 -7 -2 -3 -4 9 -2 29 3 53 24 54 50 1 17 2 18 6 3 3 -10 1 -26 -3 -35
-11 -26 -11 -27 -13 -99 -1 -42 -5 -63 -10 -54 -5 8 -11 9 -15 3 -3 -6 1 -18
10 -27 15 -15 19 -28 23 -77 0 -10 6 -18 12 -18 6 0 8 7 5 15 -3 8 -9 22 -12
30 -5 12 2 15 40 14 25 -1 46 -6 46 -11 0 -4 5 -7 11 -5 6 1 15 -8 20 -20 6
-18 5 -23 -7 -23 -8 0 -12 4 -9 10 3 5 -6 12 -20 16 -14 3 -25 10 -25 15 0 5
-4 9 -8 9 -14 0 -28 -55 -21 -83 6 -24 5 -27 -17 -27 -35 0 -39 3 -37 22 2 10
-2 18 -7 18 -9 0 -14 -14 -11 -32 0 -5 -4 -8 -10 -8 -5 0 -7 -4 -4 -10 3 -6
-1 -7 -9 -4 -9 3 -16 1 -16 -5 0 -6 11 -11 25 -11 22 0 24 -3 16 -19 -6 -10
-7 -21 -4 -25 3 -3 -4 -6 -17 -6 -19 0 -21 3 -12 12 7 7 12 16 12 21 0 5 -7 2
-15 -7 -8 -8 -15 -20 -15 -26 0 -7 -10 -9 -28 -5 -21 4 -33 1 -46 -14 -17 -19
-17 -20 4 -31 15 -8 20 -8 16 -1 -4 6 -2 11 3 11 6 0 11 -7 11 -16 0 -9 5 -13
13 -9 6 4 1 -2 -12 -13 -18 -14 -21 -21 -11 -27 8 -5 11 -4 7 2 -7 11 42 38
51 28 3 -3 1 -5 -4 -5 -5 0 -10 -9 -11 -20 -1 -11 4 -20 13 -20 8 0 14 -7 14
-16 0 -8 4 -13 10 -9 5 3 6 13 3 22 -4 11 -2 14 8 11 9 -3 19 7 27 26 10 25
15 28 22 16 6 -10 10 -11 10 -3 0 7 7 10 16 6 13 -5 12 -9 -8 -28 -16 -15 -26
-19 -31 -11 -5 6 -6 0 -3 -14 3 -14 6 -28 6 -32 0 -15 30 5 30 19 0 10 6 13
16 9 8 -3 12 -2 9 4 -3 6 1 10 10 10 10 0 13 5 9 13 -4 6 1 5 12 -4 10 -9 24
-14 31 -12 6 2 22 -10 34 -26 13 -17 28 -31 33 -31 6 0 4 5 -4 10 -13 8 -12
10 3 10 10 0 17 -8 17 -19 0 -28 10 -51 23 -51 6 0 22 12 34 27 l24 27 45 -23
c26 -12 44 -24 42 -27 -9 -8 -49 -13 -44 -5 3 4 -5 13 -18 19 -18 8 -23 7 -23
-4 0 -8 6 -14 12 -14 16 0 39 -45 30 -60 -4 -7 1 -14 14 -17 11 -3 18 -9 15
-14 -3 -5 0 -17 6 -28 13 -25 -4 -38 -25 -21 -12 10 -16 9 -21 -5 -4 -10 -1
-21 7 -27 10 -7 6 -8 -13 -4 -17 4 -32 1 -43 -10 -24 -25 -13 -39 31 -39 21
-1 49 -6 62 -13 20 -11 22 -10 22 8 0 16 5 21 23 18 19 -3 21 -8 19 -37 -2
-18 0 -31 5 -28 6 4 10 0 10 -8 0 -8 -5 -13 -11 -12 -6 1 -10 -8 -9 -21 3 -20
-7 -27 -30 -23 -5 1 -6 -3 -2 -9 3 -5 -2 -10 -11 -10 -22 0 -7 -16 21 -22 17
-4 16 -7 -10 -18 -35 -15 -40 -17 -59 -19 -9 -1 -14 -14 -15 -33 -3 -75 -8
-107 -19 -121 -7 -7 -8 -18 -4 -22 4 -5 -1 -5 -11 -2 -11 4 -16 3 -12 -3 4 -7
1026 -10 2966 -10 l2959 0 0 1080 0 1080 -25 22 c-13 11 -22 25 -19 30 8 13
24 9 24 -7 0 -8 5 -15 10 -15 6 0 10 22 10 49 l0 49 -55 -3 c-30 -2 -59 -6
-65 -10 -6 -4 -28 -4 -48 0 -20 4 -48 9 -62 10 -96 9 -128 17 -123 31 9 24
-16 43 -65 50 -26 4 -58 12 -72 19 -21 11 -27 10 -39 -2 -10 -11 -24 -13 -50
-9 -20 4 -49 8 -66 10 -16 2 -46 6 -67 10 -27 5 -44 2 -69 -13 -30 -18 -35
-19 -50 -5 -18 16 -53 9 -42 -10 5 -7 2 -7 -8 1 -8 7 -24 12 -34 11 -11 0 -53
7 -92 16 -40 9 -104 23 -143 31 -72 15 -154 60 -143 78 3 6 1 7 -5 3 -6 -4
-18 8 -28 30 -9 19 -28 42 -40 51 -26 17 -23 33 6 33 23 0 17 28 -16 81 -13
20 -20 40 -17 43 4 3 1 6 -5 6 -7 0 -12 10 -12 23 0 12 -13 38 -30 57 -16 19
-29 40 -30 45 -1 19 -105 112 -139 123 -66 23 -276 10 -316 -18 -5 -4 -23 -10
-40 -14 -16 -4 -46 -17 -65 -30 -19 -12 -51 -28 -70 -36 -19 -7 -62 -26 -94
-42 -33 -15 -64 -28 -68 -28 -5 0 -52 -21 -105 -46 -118 -56 -164 -62 -273
-38 -68 16 -88 25 -116 54 -19 19 -34 40 -34 46 0 24 -106 106 -194 150 -127
64 -135 42 -31 -91 31 -40 57 -85 61 -105 6 -34 36 -117 55 -152 5 -10 9 -32
9 -48 0 -17 3 -29 8 -27 4 3 8 -13 10 -35 2 -26 -1 -37 -8 -33 -6 3 -7 11 -4
17 4 6 1 14 -5 18 -7 4 -13 16 -14 28 0 12 -7 24 -14 26 -7 3 -13 12 -13 19 0
17 -99 210 -111 218 -6 3 -11 16 -12 27 -1 12 -7 22 -14 22 -16 0 -17 -17 -1
-22 7 -3 9 -11 3 -24 -8 -19 -8 -19 -13 0 -2 10 -12 33 -21 50 -10 17 -23 48
-30 69 -7 20 -17 37 -22 37 -6 0 -7 5 -4 10 4 6 3 16 -2 23 -5 7 -15 32 -23
57 -15 54 -142 314 -170 350 l-20 25 1 -25z m-1456 -910 c-7 -12 -55 -14 -55
-2 0 4 14 8 30 9 18 1 28 -2 25 -7z m-572 -15 c-3 -9 -8 -14 -10 -11 -3 3 -2
9 2 15 9 16 15 13 8 -4z m73 -25 c0 -14 -7 -20 -21 -20 -17 0 -17 2 -5 10 13
9 13 11 0 20 -12 8 -12 10 5 10 14 0 21 -6 21 -20z m504 5 c10 -12 9 -15 -4
-15 -10 0 -15 4 -12 9 4 5 0 12 -6 14 -8 4 -9 6 -2 6 6 1 17 -6 24 -14z m83 8
c-7 -2 -19 -2 -25 0 -7 3 -2 5 12 5 14 0 19 -2 13 -5z m-763 -17 c0 -2 -7 -7
-16 -10 -8 -3 -12 -2 -9 4 6 10 25 14 25 6z m720 -7 c0 -7 9 -9 23 -6 21 6 21
6 -3 -13 -14 -11 -31 -20 -38 -20 -7 0 -10 -5 -6 -12 4 -7 3 -8 -4 -4 -9 5 -9
13 0 29 7 12 11 25 10 30 -1 4 3 7 8 7 6 0 10 -5 10 -11z m0 -75 c0 -8 -5 -12
-10 -9 -6 4 -8 11 -5 16 9 14 15 11 15 -7z m156 -46 c-9 -12 -16 -20 -16 -16
0 3 -3 14 -7 24 -5 13 -3 16 10 11 10 -4 17 -2 17 5 0 6 3 9 6 5 3 -3 -1 -16
-10 -29z m-1529 -10 c-3 -7 -5 -2 -5 12 0 14 2 19 5 13 2 -7 2 -19 0 -25z
m1419 8 c2 -14 0 -15 -12 -5 -17 14 -19 32 -2 27 6 -2 12 -12 14 -22z m-1199
-1 c0 -8 -4 -12 -9 -9 -5 3 -6 10 -3 15 9 13 12 11 12 -6z m1363 10 c0 -2 -9
-9 -20 -15 -16 -9 -18 -8 -14 5 5 13 34 22 34 10z m4086 -10 c19 -14 19 -14
-2 -15 -11 0 -29 7 -40 15 -19 14 -19 14 2 15 11 0 29 -7 40 -15z m-4639 -49
c-6 -18 -34 -19 -41 -1 -5 13 -2 14 17 4 20 -11 21 -11 8 5 -12 14 -12 16 3
10 9 -4 15 -12 13 -18z m433 -1 c-7 -8 -9 -15 -4 -15 5 0 2 -5 -6 -10 -13 -8
-13 -10 1 -10 9 0 16 -7 16 -15 0 -8 -4 -15 -9 -15 -5 0 -6 -9 -3 -21 6 -17 3
-20 -12 -17 -10 2 -24 -3 -31 -12 -8 -8 -11 -9 -7 -2 4 8 -2 12 -19 12 -14 0
-27 6 -27 13 -8 67 -5 87 13 87 10 0 18 5 18 10 0 6 19 10 41 10 36 0 40 -2
29 -15z m44 -10 c-7 -18 -20 -19 -30 -3 -4 7 -3 8 4 4 7 -4 12 -2 12 3 0 6 4
11 10 11 5 0 7 -7 4 -15z m-329 -5 c3 -5 -1 -10 -10 -10 -9 0 -13 5 -10 10 3
6 8 10 10 10 2 0 7 -4 10 -10z m102 -14 c-4 -22 -67 -36 -67 -15 0 6 9 9 20 6
10 -3 19 -2 18 2 -1 13 3 18 16 18 8 0 14 -5 13 -11z m59 -38 c-1 -38 -17 -58
-43 -57 -16 0 -16 1 2 9 19 8 19 9 -2 9 -31 1 -29 29 2 37 14 3 23 10 20 14
-3 5 1 11 7 13 7 3 13 6 14 6 0 1 0 -14 0 -31z m4734 22 c0 -13 -11 -13 -30 0
-12 8 -11 10 8 10 12 0 22 -4 22 -10z m-6090 -46 c0 -8 -7 -14 -15 -14 -15 0
-21 21 -9 33 10 9 24 -2 24 -19z m1160 1 c0 -8 -4 -15 -8 -15 -5 0 -9 7 -9 15
0 8 4 15 9 15 4 0 8 -7 8 -15z m412 -47 c24 1 39 -20 27 -38 -8 -11 -12 -12
-16 -2 -2 6 -9 12 -14 12 -6 0 -8 -4 -5 -9 3 -5 -12 -11 -35 -13 -22 -2 -43 0
-45 4 -3 5 -16 6 -29 4 -22 -4 -23 -2 -13 19 7 15 16 21 29 18 10 -3 16 -10
12 -16 -3 -6 -1 -7 6 -3 9 6 9 11 -1 23 -10 13 -7 14 27 8 22 -4 48 -7 57 -7z
m-1578 -10 c-6 -10 -4 -10 8 0 18 15 29 5 19 -18 -7 -17 -61 -26 -61 -11 0 10
28 41 36 41 3 0 2 -6 -2 -12z m-150 -15 c4 -9 -1 -25 -12 -37 -21 -22 -18 -44
6 -62 8 -6 12 -16 8 -23 -5 -8 -14 -5 -31 11 -14 14 -19 25 -13 29 7 4 6 13
-1 28 -7 11 -8 21 -2 21 5 0 12 11 15 25 7 29 21 33 30 8z m1504 -18 c-3 -3
-9 2 -12 12 -6 14 -5 15 5 6 7 -7 10 -15 7 -18z m22 -15 c0 -5 -5 -10 -11 -10
-5 0 -7 5 -4 10 3 6 8 10 11 10 2 0 4 -4 4 -10z m-1349 -72 c-39 -38 -39 -45
-1 -43 23 1 30 -2 30 -17 0 -14 -8 -18 -40 -18 -36 0 -40 3 -40 24 0 13 8 27
18 31 16 6 16 7 0 19 -29 21 -21 34 23 34 l42 1 -32 -31z m1071 20 c15 -11 15
-15 2 -26 -12 -11 -14 -10 -14 7 0 11 -6 22 -12 24 -7 3 -8 6 -2 6 5 1 18 -5
26 -11z m-737 -32 c18 -13 18 -14 -8 -40 -46 -46 -64 -34 -39 27 13 31 20 33
47 13z m-229 -25 c2 -32 -23 -51 -38 -29 -6 11 -8 10 -8 0 0 -7 -4 -10 -10 -7
-5 3 -10 15 -10 26 0 14 7 19 24 19 14 0 28 5 31 10 9 15 10 13 11 -19z m157
-17 c-13 -21 -15 -21 -59 -5 l-45 16 38 5 c21 3 47 6 59 5 19 0 20 -2 7 -21z
m833 15 c3 -6 20 -17 38 -25 29 -12 30 -13 6 -13 -29 -1 -45 8 -53 29 -4 12
-7 11 -12 -6 -5 -15 -16 -21 -45 -22 -21 -2 -41 2 -44 7 -7 11 49 26 63 17 5
-3 11 1 15 9 6 18 22 20 32 4z m96 4 c-12 -2 -20 -8 -17 -13 3 -4 14 -6 25 -3
12 3 20 0 20 -6 0 -7 5 -9 10 -6 6 3 10 1 10 -4 0 -6 -6 -11 -12 -11 -9 0 -8
-4 2 -10 12 -8 10 -10 -8 -10 -13 0 -21 4 -18 8 3 5 -8 16 -25 26 -16 9 -29
14 -29 11 0 -3 -5 -3 -11 1 -17 10 11 24 46 22 24 0 25 -2 7 -5z m-1257 -44
c-3 -4 7 -10 22 -12 24 -3 23 -4 -7 -6 -34 -1 -36 1 -38 32 -2 30 -1 31 13 13
8 -10 12 -22 10 -27z m1374 11 c6 0 10 6 9 13 -2 7 10 13 27 15 30 4 30 4 11
-17 -11 -12 -31 -22 -45 -22 -25 -1 -25 -2 4 -9 25 -6 26 -8 7 -9 -13 0 -20
-5 -17 -11 3 -5 1 -10 -5 -10 -6 0 -9 -4 -6 -9 3 -5 0 -11 -7 -14 -10 -4 -13
5 -12 30 0 19 -3 37 -7 39 -4 3 -4 12 -1 21 6 14 7 14 18 -1 7 -9 17 -16 24
-16z m-1199 -42 c0 -18 -2 -20 -9 -8 -6 8 -7 18 -5 22 9 14 14 9 14 -14z m197
16 c-3 -3 -12 -4 -19 -1 -8 3 -5 6 6 6 11 1 17 -2 13 -5z m843 -4 c0 -5 -4
-10 -9 -10 -6 0 -13 5 -16 10 -3 6 1 10 9 10 9 0 16 -4 16 -10z m-170 -16 c0
-8 -5 -12 -10 -9 -6 4 -8 11 -5 16 9 14 15 11 15 -7z m180 -24 c13 -8 13 -11
1 -22 -11 -11 -13 -11 -7 0 6 10 1 11 -21 6 -25 -7 -27 -6 -14 9 15 19 20 20
41 7z m4534 -33 c3 -20 1 -39 -4 -42 -6 -4 -10 14 -10 41 0 54 7 55 14 1z
m-5580 22 c-3 -5 -14 -9 -25 -9 -10 0 -19 4 -19 9 0 5 11 9 25 9 13 0 22 -4
19 -9z m108 -21 c-7 -7 -10 -5 -7 8 5 29 6 30 12 16 3 -8 1 -18 -5 -24z m83
23 c3 -5 1 -12 -5 -16 -5 -3 -10 1 -10 9 0 18 6 21 15 7z m293 -8 c-4 -24 -24
-27 -24 -3 0 11 6 20 14 20 7 0 12 -8 10 -17z m472 1 c0 -2 -9 -4 -21 -4 -11
0 -18 4 -14 10 5 8 35 3 35 -6z m-970 -46 c0 -6 -7 -7 -16 -4 -14 5 -15 4 -4
-9 11 -14 14 -14 25 1 11 15 12 15 12 0 0 -9 -4 -16 -9 -16 -5 0 -7 -8 -4 -17
5 -14 0 -18 -23 -19 -21 -1 -31 4 -34 17 -3 10 0 20 7 23 15 6 -15 27 -31 21
-7 -2 -13 0 -13 5 0 5 8 10 18 12 27 6 72 -3 72 -14z m-221 -30 c1 -5 -7 -8
-16 -8 -15 0 -16 -2 -3 -10 12 -8 11 -10 -6 -10 -12 0 -21 6 -21 15 0 8 4 15
8 15 4 0 11 10 15 23 7 21 7 21 15 2 4 -11 8 -23 8 -27z m281 22 c0 -14 28
-12 33 3 2 6 8 9 12 5 4 -4 -1 -16 -11 -26 -18 -20 -20 -20 -41 -2 -27 21 -29
30 -8 30 8 0 15 -4 15 -10z m5533 -33 c3 -8 1 -20 -4 -28 -6 -10 -9 -7 -9 14
0 29 5 35 13 14z m-5963 -22 c-10 -12 -16 -13 -26 -4 -20 16 -18 19 12 19 22
0 25 -2 14 -15z m10 -55 c0 -4 -11 -5 -24 -3 -16 3 -23 10 -19 19 4 10 -3 14
-23 15 -29 1 -29 1 -4 8 18 6 31 3 48 -12 12 -11 22 -24 22 -27z m203 10 c-3
-11 -10 -20 -15 -20 -6 0 -5 -7 2 -15 10 -12 10 -15 -2 -15 -16 0 -18 35 -5
58 13 19 26 14 20 -8z m-156 -10 c1 -11 -4 -20 -12 -20 -8 0 -11 7 -8 20 3 11
8 20 12 20 4 0 7 -9 8 -20z m463 10 c0 -5 -4 -10 -10 -10 -5 0 -10 5 -10 10 0
6 5 10 10 10 6 0 10 -4 10 -10z m-450 -66 c0 -20 -7 -17 -20 6 -9 16 -8 18 5
14 8 -4 15 -12 15 -20z m583 -3 c2 -10 0 -25 -5 -34 -10 -19 -35 -13 -35 8 0
11 4 12 13 4 10 -8 12 -5 8 15 -5 30 11 36 19 7z m-781 -33 c-7 -7 -12 -8 -12
-2 0 14 12 26 19 19 2 -3 -1 -11 -7 -17z m225 -15 c2 -6 -4 -10 -13 -9 -10 2
-20 8 -22 15 -3 8 3 12 14 9 9 -1 19 -8 21 -15z m540 -22 c13 -16 20 -17 39
-9 27 13 54 -4 53 -31 0 -11 -3 -9 -9 7 -5 12 -11 22 -13 22 -9 0 0 -49 11
-62 16 -20 3 -31 -16 -15 -13 10 -14 9 -8 -1 5 -9 1 -15 -12 -19 -11 -2 -23
-14 -26 -26 -3 -12 -8 -18 -12 -14 -4 4 -14 1 -22 -6 -13 -10 -15 -9 -10 3 4
11 0 16 -12 16 -10 0 -16 -4 -14 -8 3 -4 -5 -8 -18 -8 -13 0 -30 -6 -37 -12
-11 -11 -13 -10 -7 2 4 8 -2 4 -13 -8 -19 -22 -19 -25 -5 -40 13 -13 17 -13
25 -1 6 9 9 10 9 2 0 -7 6 -10 14 -7 8 3 13 11 10 18 -7 18 20 38 41 30 16 -6
16 -8 1 -16 -9 -5 -22 -6 -29 -2 -8 5 -7 2 2 -9 10 -13 10 -17 1 -17 -7 0 -10
-7 -7 -15 4 -8 1 -17 -5 -21 -7 -5 -8 -2 -3 6 6 9 4 11 -4 6 -7 -5 -10 -14 -7
-22 3 -8 1 -14 -4 -14 -6 0 -10 5 -10 11 0 7 -9 0 -21 -15 -11 -14 -25 -24
-29 -21 -13 8 -52 -34 -44 -47 4 -6 1 -9 -6 -6 -8 2 -16 10 -18 18 -3 7 0 10
7 6 6 -4 11 -2 11 3 0 6 -3 11 -7 11 -15 0 -28 -15 -28 -30 0 -8 5 -18 10 -22
6 -4 -1 -8 -14 -8 l-25 0 22 -21 c23 -21 21 -39 -4 -39 -11 0 -13 6 -9 20 4
13 2 20 -7 20 -18 0 -34 29 -42 76 l-7 41 43 1 c86 2 83 1 62 17 -13 9 -23 10
-31 3 -7 -6 -13 -7 -13 -4 0 4 -9 2 -20 -4 -17 -9 -20 -8 -20 14 0 26 15 43
24 28 3 -5 18 -8 33 -6 15 1 31 -3 35 -9 6 -9 8 -8 8 2 0 11 3 11 18 0 15 -13
16 -12 3 3 -7 10 -17 16 -21 13 -5 -3 -11 -1 -15 5 -4 6 6 10 22 11 17 1 21 3
11 6 -10 2 -18 9 -18 14 0 20 -20 7 -26 -18 -7 -25 -8 -25 -20 -8 -8 11 -14
24 -13 29 0 6 3 5 6 -1 8 -21 26 -15 20 6 -3 12 3 27 16 38 11 10 17 12 13 6
-4 -7 -2 -13 4 -13 6 0 8 -4 5 -10 -3 -6 5 -10 18 -10 14 0 27 6 30 13 3 8 -1
14 -9 14 -7 0 -10 -5 -7 -11 4 -6 -2 -4 -12 4 -17 14 -17 15 11 18 16 2 36 9
44 17 15 13 94 14 106 2 4 -4 -1 -7 -11 -7 -10 0 -15 -3 -12 -6 4 -4 19 -1 36
5 20 9 27 18 24 31 -3 10 0 21 6 24 14 9 14 26 0 26 -5 0 -7 -4 -4 -10 3 -5 1
-10 -4 -10 -6 0 -11 5 -11 10 0 6 -5 10 -11 10 -5 0 -7 -4 -4 -10 3 -5 -10 -3
-28 5 -19 8 -38 11 -42 7 -5 -4 -5 -2 -1 5 4 7 13 10 22 6 20 -7 14 20 -6 29
-11 5 -9 7 8 7 12 1 30 -8 39 -18z m-270 -109 c-9 -2 -14 -8 -11 -14 4 -7 2
-8 -4 -4 -17 11 -3 36 16 28 16 -6 15 -7 -1 -10z m-57 -22 c-12 -8 -12 -10 -1
-10 8 0 12 -3 8 -6 -9 -9 -28 6 -22 17 4 5 12 9 18 9 7 0 6 -4 -3 -10z m26
-117 c-3 -8 -6 -17 -6 -19 0 -2 -4 -4 -10 -4 -5 0 -10 11 -10 25 0 18 4 23 16
18 8 -3 13 -12 10 -20z m-31 -45 c-19 -11 -30 -5 -21 11 4 6 14 7 22 4 15 -5
14 -7 -1 -15z m-13 -193 c3 -14 -1 -33 -8 -42 -7 -10 -14 -13 -14 -7 0 5 6 16
13 23 10 11 8 12 -9 3 -12 -6 -24 -9 -27 -6 -12 12 14 53 34 54 4 0 9 -11 11
-25z m26 -125 c-7 -11 -16 -20 -20 -20 -5 0 -8 9 -8 20 0 13 7 20 20 20 18 0
19 -2 8 -20z m-25 -120 c4 -14 0 -20 -12 -20 -9 0 -22 9 -29 20 -11 18 -10 20
12 20 15 0 26 -7 29 -20z m77 -10 c-20 -13 -43 -13 -35 0 4 6 10 8 15 5 5 -3
12 0 15 6 4 5 10 8 13 4 4 -3 0 -10 -8 -15z m-143 -38 c9 -16 8 -18 -11 -16
-11 1 -24 3 -28 3 -5 1 -8 8 -8 16 0 21 33 19 47 -3z m417 -201 c3 -5 -1 -11
-9 -15 -9 -3 -15 0 -15 9 0 16 16 20 24 6z m80 -219 c3 -5 -1 -9 -9 -9 -8 0
-15 4 -15 9 0 4 4 8 9 8 6 0 12 -4 15 -8z"></path>
<path d="M6700 2266 c0 -2 7 -7 16 -10 8 -3 12 -2 9 4 -6 10 -25 14 -25 6z"></path>
<path d="M6700 2243 c0 -5 6 -17 13 -28 13 -17 14 -17 20 5 3 12 3 19 0 16 -4
-3 -12 -1 -20 5 -7 6 -13 7 -13 2z"></path>
<path d="M6837 2149 c7 -7 15 -10 18 -7 3 3 -2 9 -12 12 -14 6 -15 5 -6 -5z"></path>
<path d="M5650 1999 c0 -5 -5 -7 -12 -3 -7 4 -8 3 -4 -5 6 -9 11 -9 22 0 17
14 18 19 4 19 -5 0 -10 -5 -10 -11z"></path>
<path d="M5388 1983 c6 -2 18 -2 25 0 6 3 1 5 -13 5 -14 0 -19 -2 -12 -5z"></path>
<path d="M5597 1453 c3 -8 9 -11 12 -6 3 4 15 10 26 11 32 6 29 10 -9 10 -26
0 -33 -3 -29 -15z"></path>
<path d="M5566 1323 c-6 -14 -5 -15 5 -6 7 7 10 15 7 18 -3 3 -9 -2 -12 -12z"></path>
<path d="M5520 1310 c0 -5 7 -10 15 -10 8 0 15 5 15 10 0 6 -7 10 -15 10 -8 0
-15 -4 -15 -10z"></path>
<path d="M5406 1278 c3 -5 10 -6 15 -3 13 9 11 12 -6 12 -8 0 -12 -4 -9 -9z"></path>
<path d="M4383 3120 c-17 -36 -36 -79 -43 -97 -14 -37 -37 -60 -65 -64 -34 -4
-177 12 -247 28 -88 20 -158 13 -238 -25 -91 -43 -144 -84 -160 -123 -8 -19
-21 -44 -31 -57 -9 -12 -23 -45 -30 -73 -19 -74 -38 -83 -125 -65 -38 8 -141
20 -229 26 -88 6 -173 13 -190 15 -74 12 -125 10 -204 -7 -47 -10 -99 -20
-116 -22 -16 -2 -50 -11 -73 -20 -24 -9 -74 -20 -110 -26 -77 -12 -143 -30
-156 -42 -6 -4 -20 -8 -33 -8 -42 0 -259 -63 -331 -96 -18 -9 -49 -18 -68 -21
-19 -3 -37 -10 -40 -14 -3 -5 -13 -9 -23 -9 -16 0 -44 -10 -146 -50 -11 -4
-36 -14 -55 -21 -19 -8 -45 -25 -57 -40 -14 -16 -37 -29 -61 -32 -44 -7 -86
-47 -96 -91 -4 -16 -27 -64 -52 -106 -24 -42 -44 -82 -44 -88 0 -6 -21 -30
-46 -54 -93 -87 -277 -274 -293 -298 -9 -14 -29 -36 -44 -49 -15 -13 -42 -44
-59 -70 -18 -25 -42 -57 -55 -71 -13 -14 -23 -28 -23 -31 0 -3 -11 -19 -25
-35 -14 -16 -25 -33 -25 -37 0 -10 -94 -151 -140 -212 -17 -22 -41 -53 -53
-69 -50 -66 -178 -208 -258 -286 -62 -61 -127 -138 -174 -204 -11 -16 -32 -43
-46 -60 -14 -17 -47 -61 -72 -97 l-47 -67 0 -176 0 -176 1665 0 c1090 0 1665
4 1665 10 0 6 7 10 16 10 9 0 14 7 12 17 -2 12 -11 17 -27 15 -16 -3 -22 1
-19 10 3 7 11 13 19 14 35 2 40 5 34 14 -3 5 -2 10 2 10 5 0 16 13 26 29 l16
28 -28 -1 c-16 -1 -29 -3 -29 -6 0 -3 0 -12 -1 -20 -1 -12 -3 -13 -10 -1 -12
18 -2 51 16 51 8 0 12 4 9 8 -7 12 33 54 45 47 5 -4 12 1 15 9 3 9 10 16 16
16 15 0 42 31 43 51 1 10 -2 16 -7 13 -4 -3 -8 4 -8 16 0 14 4 19 12 14 8 -5
9 -2 4 11 -4 11 -2 22 6 27 10 6 10 10 -2 18 -8 5 -10 10 -4 10 11 0 28 36 25
53 -1 4 6 10 14 13 8 4 15 10 15 14 0 4 12 34 27 66 15 33 28 65 29 71 3 15
51 94 82 133 12 15 22 33 22 39 0 6 4 11 8 11 5 0 17 17 28 37 10 21 26 49 36
64 9 14 46 82 81 152 35 70 69 133 75 139 6 7 11 18 11 23 1 6 11 24 23 40 13
17 31 46 40 65 10 19 43 76 74 125 31 50 66 113 79 140 40 87 83 189 90 215 4
14 11 30 16 35 4 6 11 26 14 45 3 18 8 36 10 39 2 4 15 51 30 106 15 55 36
134 47 175 15 55 22 125 28 265 5 105 15 240 24 300 18 128 22 255 9 340 l-8
60 -32 -65z"></path>
<path d="M10286 2575 c10 -8 27 -15 37 -15 10 0 15 -4 12 -10 -3 -6 1 -7 9 -4
9 3 36 -2 61 -11 29 -11 59 -16 85 -12 24 3 45 1 53 -6 24 -23 137 -18 137 6
0 8 -21 13 -62 15 -35 2 -67 8 -72 13 -6 5 -24 9 -41 9 -16 0 -62 7 -100 15
-39 8 -85 15 -104 15 -33 0 -34 -1 -15 -15z"></path>
<path d="M10694 2519 c-9 -16 2 -22 21 -11 15 8 16 10 1 15 -8 3 -18 2 -22 -4z"></path>
<path d="M6870 2461 c0 -7 -4 -10 -9 -6 -5 3 -12 1 -16 -5 -3 -5 1 -10 9 -10
17 0 31 18 22 27 -3 4 -6 1 -6 -6z"></path>
<path d="M5808 2418 c-7 -7 -22 -15 -33 -16 -11 -2 -22 -6 -24 -8 -5 -5 19
-34 27 -32 20 2 32 -3 27 -12 -3 -5 -1 -10 4 -10 6 0 11 -7 11 -15 0 -8 -5
-15 -11 -15 -5 0 -8 4 -4 9 10 18 -31 32 -60 21 -17 -7 -24 -7 -20 0 3 6 -1
10 -9 10 -9 0 -16 5 -16 11 0 5 4 8 8 5 13 -8 12 32 -1 42 -7 5 -21 6 -32 1
-17 -6 -17 -8 -2 -8 24 -1 22 -21 -3 -21 -13 0 -18 -5 -14 -15 4 -8 1 -15 -5
-15 -13 0 -10 -22 4 -32 6 -4 2 -8 -7 -8 -10 0 -18 5 -18 10 0 6 -8 10 -17 10
-15 0 -16 -2 -3 -10 10 -6 11 -10 3 -10 -7 0 -13 -6 -13 -13 0 -8 -7 -14 -15
-14 -8 0 -15 6 -15 14 0 9 -13 13 -45 11 -25 0 -45 -5 -45 -10 0 -5 4 -7 9 -3
5 3 13 0 16 -6 4 -6 18 -8 33 -4 23 6 24 5 11 -12 -8 -10 -21 -23 -29 -30 -11
-9 -12 -12 -2 -13 9 0 10 -5 2 -19 -7 -14 -7 -22 0 -26 6 -4 8 -10 5 -15 -3
-5 0 -12 6 -16 8 -5 10 -2 5 7 -4 8 0 5 8 -5 13 -16 16 -17 16 -4 0 24 30 31
47 11 11 -14 16 -15 20 -5 4 10 8 10 20 1 12 -11 13 -8 8 14 -5 17 -3 27 4 27
6 0 10 9 8 19 -1 11 3 19 8 18 6 -1 9 -8 9 -14 -1 -7 4 -13 12 -13 17 0 18 16
2 26 -8 5 -6 11 6 19 14 11 15 13 1 19 -8 3 -23 3 -32 0 -14 -5 -15 -4 -4 4 8
6 11 17 7 28 -4 10 -4 15 0 11 4 -4 13 1 20 11 12 15 13 15 9 -5 -2 -13 0 -25
6 -28 5 -4 9 1 9 11 0 14 6 15 33 9 55 -13 107 -12 107 2 0 9 8 11 28 7 32 -8
41 -14 20 -14 -9 0 -21 -6 -27 -13 -8 -10 -7 -14 4 -14 8 0 12 4 9 9 -3 4 3 9
13 9 41 3 46 5 51 18 3 8 0 11 -6 7 -5 -3 -21 -2 -34 3 -12 6 -17 10 -10 10 6
1 12 6 12 13 0 7 12 22 28 35 15 12 22 22 15 23 -6 0 -18 -7 -27 -15 -8 -8
-20 -15 -26 -15 -7 0 -10 -6 -7 -14 9 -23 -12 -36 -39 -24 -13 6 -24 14 -24
18 0 12 26 30 33 23 4 -3 7 -1 7 5 0 15 -17 16 -25 2 -4 -6 -11 -7 -17 -4 -6
4 -5 10 3 16 10 7 7 8 -10 4 -28 -6 -15 10 14 17 19 4 18 5 -2 6 -12 0 -28 -5
-35 -11z m-168 -172 c0 -8 3 -21 6 -30 3 -9 1 -16 -6 -16 -6 0 -9 4 -6 9 3 5
-3 11 -14 14 -13 3 -18 10 -14 21 8 20 34 21 34 2z m-66 -5 c3 -4 -3 -18 -13
-30 -20 -23 -41 -30 -21 -6 6 8 9 18 6 24 -3 5 0 12 6 14 7 3 14 6 15 6 1 1 4
-3 7 -8z m40 -43 c19 -8 23 -14 15 -24 -8 -10 -14 -9 -30 7 -31 31 -26 36 15
17z"></path>
<path d="M5085 2400 c-3 -5 -1 -10 4 -10 6 0 11 5 11 10 0 6 -2 10 -4 10 -3 0
-8 -4 -11 -10z"></path>
<path d="M6160 2400 c-8 -5 -10 -10 -5 -10 6 0 17 5 25 10 8 5 11 10 5 10 -5
0 -17 -5 -25 -10z"></path>
<path d="M5970 2375 c0 -9 6 -12 15 -9 8 4 15 1 15 -6 0 -9 -10 -11 -30 -7
-29 6 -29 6 -10 -13 11 -11 26 -20 33 -20 8 0 7 4 -3 10 -13 8 -12 10 3 10 10
0 27 -5 38 -10 15 -8 19 -7 19 5 0 8 -7 15 -15 15 -8 0 -19 9 -25 20 -12 23
-40 27 -40 5z"></path>
<path d="M6220 2381 c0 -5 7 -11 14 -14 10 -4 13 -1 9 9 -6 15 -23 19 -23 5z"></path>
<path d="M6070 2360 c-6 -20 -7 -39 -2 -39 28 4 34 -1 21 -18 -12 -14 -10 -14
14 1 32 21 33 24 10 22 -10 0 -17 5 -15 12 1 8 -2 11 -7 8 -5 -4 -12 0 -14 6
-3 7 -6 11 -7 8z"></path>
<path d="M6160 2334 c0 -8 -5 -12 -11 -9 -6 4 -5 -2 2 -13 13 -21 24 -20 24 1
0 5 6 12 14 15 9 3 11 0 6 -8 -5 -7 -4 -11 1 -8 11 7 35 -17 27 -26 -4 -3 -3
-6 1 -6 4 0 15 8 24 18 10 10 13 12 8 5 -5 -8 -6 -16 -2 -20 3 -3 6 -1 6 5 0
7 7 12 16 12 11 0 14 5 10 16 -3 9 -6 18 -6 20 0 10 -20 3 -35 -12 -15 -15
-18 -15 -39 5 -26 25 -46 27 -46 5z"></path>
<path d="M5015 2320 c-8 -13 5 -13 25 0 13 8 13 10 -2 10 -9 0 -20 -4 -23 -10z"></path>
<path d="M5192 2321 c2 -7 7 -12 11 -12 12 1 9 15 -3 20 -7 2 -11 -2 -8 -8z"></path>
<path d="M7070 2326 c0 -2 7 -6 15 -10 8 -3 15 -1 15 4 0 6 -7 10 -15 10 -8 0
-15 -2 -15 -4z"></path>
<path d="M5743 2282 c20 -22 22 -36 4 -29 -8 3 -20 1 -28 -4 -12 -8 -11 -11 4
-20 9 -5 17 -14 17 -19 0 -6 -8 -10 -17 -10 -15 0 -16 -2 -3 -10 11 -7 20 -4
32 10 9 11 22 19 29 18 23 -6 19 18 -10 50 -17 17 -33 32 -37 32 -4 0 0 -8 9
-18z"></path>
<path d="M5445 2270 c-3 -5 1 -10 10 -10 9 0 13 5 10 10 -3 6 -8 10 -10 10 -2
0 -7 -4 -10 -10z"></path>
<path d="M6146 2268 c3 -4 12 -8 20 -8 8 0 14 4 14 8 0 4 -9 8 -19 8 -11 0
-17 -4 -15 -8z"></path>
<path d="M5001 2261 c-8 -5 -9 -11 -3 -15 5 -3 12 1 16 9 6 17 6 18 -13 6z"></path>
<path d="M5205 2260 c3 -5 8 -10 11 -10 2 0 4 5 4 10 0 6 -5 10 -11 10 -5 0
-7 -4 -4 -10z"></path>
<path d="M5385 2240 c-11 -5 -14 -9 -7 -9 6 -1 12 -8 12 -17 0 -18 22 -14 28
6 3 8 0 10 -8 5 -10 -6 -12 -4 -7 8 3 10 5 17 4 16 -1 0 -11 -4 -22 -9z"></path>
<path d="M5814 2222 c-1 -15 0 -22 3 -16 2 7 13 10 23 7 26 -7 15 -23 -15 -23
-13 0 -27 -5 -31 -11 -5 -8 -9 -7 -14 1 -9 14 -40 6 -40 -9 0 -18 51 -25 61
-10 5 8 9 10 9 6 0 -4 9 -3 20 3 11 6 20 7 19 3 -5 -31 5 -20 15 17 7 27 17
44 25 42 7 -1 10 2 6 8 -5 7 -11 8 -19 1 -12 -10 -34 -10 -51 1 -6 3 -11 -5
-11 -20z"></path>
<path d="M5935 2241 c-3 -6 4 -8 16 -6 30 6 37 15 11 15 -11 0 -23 -4 -27 -9z"></path>
<path d="M5040 2220 c0 -5 5 -10 10 -10 6 0 10 5 10 10 0 6 -4 10 -10 10 -5 0
-10 -4 -10 -10z"></path>
<path d="M5413 2181 c10 -4 19 -11 20 -16 3 -12 45 -16 52 -4 4 5 -6 9 -20 9
-15 0 -24 4 -20 10 4 6 -6 10 -22 9 -22 0 -24 -2 -10 -8z"></path>
<path d="M4904 2162 c23 -26 23 -26 23 -7 0 8 -3 13 -5 10 -3 -3 -12 1 -21 7
-10 8 -9 4 3 -10z"></path>
<path d="M5986 2165 c-3 -8 -1 -15 4 -15 13 0 22 18 11 24 -5 3 -11 -1 -15 -9z"></path>
<path d="M5388 2148 c2 -10 6 -18 7 -18 1 0 5 8 7 18 3 11 0 19 -7 19 -7 0
-10 -8 -7 -19z"></path>
<path d="M5675 2150 c3 -5 8 -10 11 -10 2 0 4 5 4 10 0 6 -5 10 -11 10 -5 0
-7 -4 -4 -10z"></path>
<path d="M5713 2140 c1 -11 5 -20 9 -20 3 0 6 9 5 20 -1 11 -5 20 -9 20 -3 0
-6 -9 -5 -20z"></path>
<path d="M4958 2143 c7 -3 16 -2 19 1 4 3 -2 6 -13 5 -11 0 -14 -3 -6 -6z"></path>
<path d="M5770 2136 c0 -2 8 -10 18 -17 15 -13 16 -12 3 4 -13 16 -21 21 -21
13z"></path>
<path d="M5000 2114 c0 -8 5 -12 10 -9 6 3 10 10 10 16 0 5 -4 9 -10 9 -5 0
-10 -7 -10 -16z"></path>
<path d="M5410 2113 c-13 -15 -12 -16 4 -10 10 4 27 7 39 8 21 0 21 1 2 9 -27
12 -28 12 -45 -7z"></path>
<path d="M5617 2123 c-8 -8 22 -43 37 -43 6 0 0 7 -12 16 -12 8 -20 20 -17 25
7 10 1 12 -8 2z"></path>
<path d="M5687 2115 c-4 -8 -3 -16 1 -19 4 -3 9 4 9 15 2 23 -3 25 -10 4z"></path>
<path d="M6021 2123 c-1 -7 -4 -12 -8 -12 -45 7 -90 -19 -62 -36 5 -4 8 -1 7
7 -2 7 4 13 12 13 8 0 14 -4 13 -10 -1 -5 10 -11 23 -11 13 -1 24 2 24 7 0 5
-10 9 -22 9 -12 0 -18 3 -15 7 4 3 20 6 37 5 17 0 28 4 24 9 -3 5 -9 7 -14 4
-4 -3 -11 1 -13 7 -4 10 -6 10 -6 1z"></path>
<path d="M4960 2080 c0 -5 5 -10 11 -10 5 0 7 5 4 10 -3 6 -8 10 -11 10 -2 0
-4 -4 -4 -10z"></path>
<path d="M5495 2070 c-3 -5 -1 -10 4 -10 6 0 11 5 11 10 0 6 -2 10 -4 10 -3 0
-8 -4 -11 -10z"></path>
<path d="M5785 2060 c3 -5 8 -10 11 -10 2 0 4 5 4 10 0 6 -5 10 -11 10 -5 0
-7 -4 -4 -10z"></path>
<path d="M5931 2052 c13 -20 39 -19 39 1 0 6 -3 7 -6 4 -4 -3 -15 -2 -26 4
-17 9 -18 8 -7 -9z"></path>
<path d="M4577 2027 c-3 -9 -2 -17 3 -17 6 0 10 -4 10 -10 0 -5 -7 -10 -15
-10 -8 0 -15 -5 -15 -12 0 -6 3 -8 7 -5 3 4 12 2 19 -4 10 -8 16 -5 26 10 18
29 28 26 28 -9 0 -18 5 -30 13 -30 13 0 67 -56 67 -70 0 -5 9 -6 20 -3 11 3
20 12 20 20 0 8 5 11 11 7 7 -4 10 -1 7 6 -2 7 7 24 21 38 15 15 27 20 29 14
2 -7 10 -12 17 -12 23 0 28 21 9 36 -18 15 -18 15 4 11 l23 -5 -24 24 c-19 19
-31 23 -56 18 -17 -4 -31 -13 -31 -20 0 -8 -11 -14 -26 -14 -19 0 -25 -4 -20
-15 7 -20 -3 -45 -19 -45 -7 0 -12 8 -12 18 0 35 -3 42 -18 42 -8 0 -14 3 -14
8 1 4 1 14 0 22 -1 11 -4 11 -13 2 -7 -7 -19 -12 -27 -11 -12 0 -10 3 4 10 17
8 16 9 -7 6 -15 -2 -29 1 -31 6 -2 6 -6 3 -10 -6z m248 -28 c3 -3 -3 -13 -12
-22 -17 -14 -18 -14 -18 7 0 21 16 29 30 15z"></path>
<path d="M4899 2027 c-9 -7 -16 -25 -16 -40 0 -49 28 -28 32 25 2 15 2 28 1
28 0 0 -8 -6 -17 -13z"></path>
<path d="M4738 2013 c7 -3 16 -2 19 1 4 3 -2 6 -13 5 -11 0 -14 -3 -6 -6z"></path>
<path d="M4517 2003 c-4 -3 -1 -13 6 -21 10 -13 9 -15 -3 -8 -8 4 -6 0 4 -8
15 -12 16 -16 5 -16 -11 0 -11 -2 -1 -9 8 -4 12 -16 10 -26 -2 -10 3 -20 11
-23 8 -3 11 0 7 6 -3 6 -2 12 3 14 6 2 3 23 -6 51 -15 46 -23 54 -36 40z"></path>
<path d="M5853 1951 c9 -11 9 -15 0 -18 -7 -3 -13 -13 -13 -23 0 -11 -6 -17
-17 -16 -24 4 -28 23 -6 29 13 3 11 5 -7 6 -19 1 -25 -4 -26 -22 -1 -18 4 -23
25 -25 35 -2 45 6 57 48 10 32 9 36 -7 36 -14 0 -16 -3 -6 -15z"></path>
<path d="M5735 1950 c-3 -5 -1 -10 4 -10 6 0 11 5 11 10 0 6 -2 10 -4 10 -3 0
-8 -4 -11 -10z"></path>
<path d="M5760 1907 c0 -13 -7 -15 -32 -11 -25 4 -29 3 -18 -5 22 -16 50 -13
57 4 3 9 3 19 -1 22 -3 4 -6 -1 -6 -10z"></path>
<path d="M4590 1898 c0 -7 4 -19 9 -27 7 -11 11 -10 20 6 5 11 7 23 4 27 -11
11 -33 7 -33 -6z"></path>
<path d="M4477 1876 c-4 -9 0 -13 11 -12 9 2 23 -4 30 -13 10 -13 11 -12 3 9
-9 28 -36 38 -44 16z"></path>
<path d="M5740 1860 c21 -7 22 -8 5 -10 l-20 -1 20 -9 c16 -7 17 -9 3 -9 -9
-1 -19 -5 -22 -10 -3 -5 14 -3 38 4 45 14 58 14 89 0 10 -4 21 -5 24 -1 4 3
-1 6 -10 6 -9 0 -17 5 -17 10 0 6 5 10 12 10 9 0 9 3 1 11 -16 16 -69 7 -65
-11 3 -11 -1 -11 -16 3 -10 9 -29 17 -43 16 l-24 -1 25 -8z"></path>
<path d="M4920 1835 c0 -16 9 -19 34 -9 25 9 19 24 -9 24 -16 0 -25 -6 -25
-15z"></path>
<path d="M5780 1790 c0 -5 5 -10 11 -10 5 0 7 5 4 10 -3 6 -8 10 -11 10 -2 0
-4 -4 -4 -10z"></path>
<path d="M4828 1783 c7 -3 16 -2 19 1 4 3 -2 6 -13 5 -11 0 -14 -3 -6 -6z"></path>
<path d="M5698 1783 c7 -3 16 -2 19 1 4 3 -2 6 -13 5 -11 0 -14 -3 -6 -6z"></path>
<path d="M5790 1740 c0 -5 5 -10 10 -10 6 0 10 5 10 10 0 6 -4 10 -10 10 -5 0
-10 -4 -10 -10z"></path>
<path d="M4828 1733 c7 -3 16 -2 19 1 4 3 -2 6 -13 5 -11 0 -14 -3 -6 -6z"></path>
<path d="M4778 1523 c7 -3 16 -2 19 1 4 3 -2 6 -13 5 -11 0 -14 -3 -6 -6z"></path>
<path d="M4837 1523 c-4 -3 -7 -11 -7 -16 0 -6 3 -7 7 -4 3 4 12 -1 19 -11 7
-9 16 -13 21 -8 4 5 2 11 -4 13 -7 3 -13 11 -13 19 0 15 -12 19 -23 7z"></path>
<path d="M5070 1520 c0 -5 -7 -10 -15 -10 -18 0 -20 -21 -3 -38 17 -17 27 -15
23 6 -1 9 4 25 13 35 14 15 13 17 -1 17 -10 0 -17 -4 -17 -10z"></path>
<path d="M5000 1508 c-1 -5 -3 -11 -4 -15 -1 -5 -5 -13 -9 -20 -9 -14 5 -25
19 -15 6 4 7 18 3 32 -4 14 -8 22 -9 18z"></path>
<path d="M5099 1470 c-1 -11 -2 -25 -3 -32 -1 -6 5 -13 12 -15 7 -3 12 4 12
15 0 11 5 22 10 24 6 2 1 9 -10 16 -17 11 -20 10 -21 -8z"></path>
<path d="M5030 1461 c0 -13 29 -41 41 -41 6 0 3 7 -5 16 -9 8 -16 20 -16 25 0
5 -4 9 -10 9 -5 0 -10 -4 -10 -9z"></path>
<path d="M4990 1430 c0 -5 5 -10 11 -10 5 0 7 5 4 10 -3 6 -8 10 -11 10 -2 0
-4 -4 -4 -10z"></path>
<path d="M5140 1394 c-13 -34 -13 -36 9 -25 10 6 20 9 22 8 2 -1 -2 3 -9 10
-8 6 -11 16 -7 22 3 6 4 11 0 11 -3 0 -10 -12 -15 -26z"></path>
<path d="M5104 1381 c4 -5 0 -11 -6 -14 -7 -2 -10 -8 -6 -12 4 -4 11 -4 17 0
14 8 14 35 0 35 -5 0 -8 -4 -5 -9z"></path>
<path d="M4655 1370 c-16 -7 -17 -9 -3 -9 9 -1 20 4 23 9 7 11 7 11 -20 0z"></path>
<path d="M4807 1374 c-15 -16 -5 -24 29 -24 22 0 33 4 29 11 -4 6 -13 8 -20 5
-7 -2 -17 0 -22 5 -5 5 -12 6 -16 3z"></path>
<path d="M4748 1363 c7 -3 16 -2 19 1 4 3 -2 6 -13 5 -11 0 -14 -3 -6 -6z"></path>
<path d="M4725 1319 c-10 -14 -1 -21 19 -13 9 3 13 10 10 15 -7 12 -21 11 -29
-2z"></path>
<path d="M4755 1279 c-9 -26 5 -41 25 -29 11 7 11 10 2 10 -7 0 -10 5 -7 11 4
6 13 8 21 5 8 -3 11 0 7 10 -8 21 -41 17 -48 -7z"></path>
<path d="M5200 1287 c0 -8 -8 -18 -17 -20 -17 -4 -17 -5 0 -6 18 -1 35 25 23
36 -3 4 -6 -1 -6 -10z"></path>
<path d="M4840 1250 c0 -19 3 -21 12 -12 9 9 9 15 0 24 -9 9 -12 7 -12 -12z"></path>
<path d="M5192 1226 c7 -8 15 -12 17 -11 5 6 -10 25 -20 25 -5 0 -4 -6 3 -14z"></path>
<path d="M5073 1213 c-7 -3 -13 -14 -13 -26 0 -20 1 -20 16 -5 18 18 16 37 -3
31z"></path>
<path d="M4720 1194 c0 -8 5 -12 10 -9 6 3 10 10 10 16 0 5 -4 9 -10 9 -5 0
-10 -7 -10 -16z"></path>
<path d="M5045 1060 c3 -5 8 -10 11 -10 2 0 4 5 4 10 0 6 -5 10 -11 10 -5 0
-7 -4 -4 -10z"></path>
<path d="M5087 765 c-2 -14 0 -28 6 -32 6 -3 7 -1 3 6 -4 7 2 15 15 20 l23 8
-21 11 c-18 10 -21 8 -26 -13z"></path>
<path d="M5261 677 c-8 -10 -7 -14 4 -14 8 0 15 6 15 14 0 7 -2 13 -4 13 -2 0
-9 -6 -15 -13z"></path>
<path d="M5322 671 c-26 -16 -6 -41 33 -41 15 0 17 2 6 9 -10 7 -8 12 10 25
l23 16 -29 0 c-17 0 -36 -4 -43 -9z"></path>
<path d="M5416 655 c4 -8 10 -15 15 -15 5 0 9 7 9 15 0 8 -7 15 -15 15 -9 0
-12 -6 -9 -15z"></path>
<path d="M5450 639 c0 -5 5 -7 10 -4 6 3 10 8 10 11 0 2 -4 4 -10 4 -5 0 -10
-5 -10 -11z"></path>
<path d="M5505 570 c-3 -5 -1 -10 4 -10 6 0 11 5 11 10 0 6 -2 10 -4 10 -3 0
-8 -4 -11 -10z"></path>
<path d="M5456 562 c-3 -5 1 -9 9 -9 8 0 12 4 9 9 -3 4 -7 8 -9 8 -2 0 -6 -4
-9 -8z"></path>
<path d="M5500 540 c-13 -8 -12 -10 3 -10 9 0 17 5 17 10 0 12 -1 12 -20 0z"></path>
<path d="M5383 472 c-10 -10 -23 -27 -29 -37 -7 -13 -15 -16 -24 -10 -35 22
-90 -2 -90 -39 0 -9 -7 -16 -15 -16 -8 0 -15 -5 -15 -10 0 -7 -6 -7 -17 -2
-22 11 -69 -1 -66 -16 2 -6 -3 -9 -11 -6 -7 3 -19 -2 -26 -11 -15 -18 -60 -20
-60 -2 -1 7 -6 5 -14 -6 -12 -16 -14 -16 -20 -2 -3 9 -10 13 -16 10 -7 -4 -7
-12 0 -25 15 -28 -11 -31 -33 -3 -20 24 -42 30 -52 13 -4 -6 -1 -17 5 -25 10
-12 9 -16 -4 -21 -24 -9 -21 -44 3 -39 15 3 18 0 14 -13 -6 -14 -4 -15 8 -5
11 9 18 10 26 2 18 -18 95 -13 109 6 9 12 32 17 89 19 42 2 81 8 87 14 7 7 23
12 38 12 18 0 21 3 11 9 -7 5 -9 11 -4 14 6 4 19 0 29 -8 22 -16 38 -20 29 -6
-7 13 34 36 57 32 13 -1 16 2 12 13 -3 9 -12 16 -20 16 -8 0 -14 5 -14 10 0
13 43 30 75 30 13 0 26 6 29 13 5 10 7 10 12 0 11 -24 24 -13 18 15 -6 23 -5
25 8 15 21 -18 28 -7 14 22 -6 14 -19 25 -29 25 -10 0 -16 -3 -14 -7 3 -5 -6
-9 -19 -9 -13 -1 -24 2 -24 6 0 4 -8 7 -17 6 -11 0 -17 6 -17 17 2 22 -2 21
-23 -1z m-306 -198 c-3 -3 -12 -4 -19 -1 -8 3 -5 6 6 6 11 1 17 -2 13 -5z"></path>
<path d="M5460 255 c-14 -8 -20 -15 -15 -15 6 0 3 -4 -5 -10 -8 -5 -12 -12 -8
-15 3 -3 12 1 21 9 8 8 17 12 21 9 3 -4 6 1 6 10 0 8 6 18 13 20 6 3 8 6 2 6
-5 0 -21 -6 -35 -14z"></path>
<path d="M5548 263 c7 -3 16 -2 19 1 4 3 -2 6 -13 5 -11 0 -14 -3 -6 -6z"></path>
<path d="M5600 251 c0 -29 15 -33 18 -5 1 13 -3 24 -8 24 -6 0 -10 -9 -10 -19z"></path>
<path d="M4757 212 c-11 -12 -13 -22 -7 -32 7 -11 10 -12 10 -2 0 7 4 11 8 8
4 -2 9 6 10 20 2 29 0 29 -21 6z"></path>
<path d="M3400 199 c0 -5 5 -7 10 -4 6 3 10 8 10 11 0 2 -4 4 -10 4 -5 0 -10
-5 -10 -11z"></path>
<path d="M5080 180 c0 -5 5 -10 10 -10 6 0 10 5 10 10 0 6 -4 10 -10 10 -5 0
-10 -4 -10 -10z"></path>
<path d="M4955 151 c-3 -5 -1 -12 5 -16 5 -3 10 1 10 9 0 18 -6 21 -15 7z"></path>
<path d="M5016 125 c-3 -8 -1 -15 4 -15 13 0 22 18 11 24 -5 3 -11 -1 -15 -9z"></path>
</g>
</svg><style>@media (prefers-color-scheme: light) { :root { filter: none; } }
@media (prefers-color-scheme: dark) { :root { filter: contrast(0.3846153846153846) brightness(4.5); } }
</style></svg>